0
SECTION
2
HEADER
9
$ANGDIR
70
0
9
$CHAMFERA
40
10
9
$CHAMFERB
40
10
9
$CLAYER
8
Layer_1
9
$EXTMAX
10
205
20
300
9
$EXTMIN
10
5
20
170
9
$LIMMAX
10
610
20
305
9
$LIMMIN
10
0
20
0
9
$LTSCALE
40
10
9
$PLINEGEN
70
0
9
$TEXTSIZE
40
20
9
$GRIDUNIT
10
5
20
5
9
$SNAPUNIT
10
1
20
1
0
ENDSEC
0
SECTION
2
TABLES
0
TABLE
2
STYLE
70
1
0
STYLE
2
STANDARD
70
0
40
0
41
1
50
0
71
0
42
0.20000000000000001
3
txt
4

0
ENDTAB
0
TABLE
2
LTYPE
70
14
0
LTYPE
2
CONTINUOUS
70
0
3
Solid line
72
65
73
0
40
0
0
LTYPE
2
DOT
70
0
3
............................................
72
65
73
2
40
0.25
49
0
49
-0.25
0
LTYPE
2
HIDDEN
70
0
3
_ _ _ _ _ _ _ _ _ _ _ _ _ _ _ _ _ _ _ _ _ _ 
72
65
73
2
40
0.375
49
0.25
49
-0.125
0
LTYPE
2
TSLONGDASH
70
0
3
__ __ __ __ __ __ __ __ __ __ __ __ __ __ _ 
72
65
73
2
40
1.28
49
1
49
-0.28000000000000003
0
LTYPE
2
TSDASHDOT
70
0
3
______ . ______ . ______ . ______ . ______ .
72
65
73
4
40
1.28
49
1
49
-0.14000000000000001
49
0
49
-0.14000000000000001
0
LTYPE
2
TSCENTER
70
0
3
______ _ ______ _ ______ _ ______ _ ______ _
72
65
73
4
40
2
49
1.5
49
-0.17999999999999999
49
0.14000000000000001
49
-0.17999999999999999
0
LTYPE
2
TSPHANTOM
70
0
3
_____ _ _ _____ _ _ _____ _ _ _____ _ _ ____
72
65
73
6
40
2.5
49
1.6299999999999999
49
-0.19
49
0.14999999999999999
49
-0.19
49
0.14999999999999999
49
-0.19
0
LTYPE
2
DASHED
70
0
3
__ __ __ __ __ __ __ __ __ __ __ __ __ __ __
72
65
73
2
40
0.75
49
0.5
49
-0.25
0
LTYPE
2
CENTER
70
0
3
____ _ ____ _ ____ _ ____ _ ____ _ ____ _ __
72
65
73
4
40
2
49
1.25
49
-0.25
49
0.25
49
-0.25
0
LTYPE
2
PHANTOM
70
0
3
_____ _ _ _____ _ _ _____ _ _ _____ _ _ ____
72
65
73
6
40
2.5
49
1.25
49
-0.25
49
0.25
49
-0.25
49
0.25
49
-0.25
0
LTYPE
2
DASHDOT
70
0
3
__ . __ . __ . __ . __ . __ . __ . __ . __ .
72
65
73
4
40
1
49
0.5
49
-0.25
49
0
49
-0.25
0
LTYPE
2
BORDER
70
0
3
__ __ . __ __ . __ __ . __ __ . __ __ . __ _
72
65
73
6
40
1.75
49
0.5
49
-0.25
49
0.5
49
-0.25
49
0
49
-0.25
0
LTYPE
2
DIVIDE
70
0
3
__ . . __ . . __ . . __ . . __ . . __ . . __
72
65
73
6
40
1.25
49
0.5
49
-0.25
49
0
49
-0.25
49
0
49
-0.25
0
ENDTAB
0
TABLE
2
LAYER
70
3
0
LAYER
2
Layer_1
70
0
62
7
6
CONTINUOUS
0
LAYER
2
Layer_2
70
0
62
7
6
CONTINUOUS
0
LAYER
2
Layer_3
70
0
62
7
6
CONTINUOUS
0
ENDTAB
0
ENDSEC
0
SECTION
2
ENTITIES
0
LINE
8
Layer_1
6
CONTINUOUS
62
7
10
89.284179955794542
20
193.85166502199766
11
110.88721032337318
21
193.85166501472332
0
LINE
8
Layer_1
6
CONTINUOUS
62
7
10
113.00853067971266
20
195.97298534550316
11
110.88721032337318
21
193.85166501472332
0
LINE
8
Layer_1
6
CONTINUOUS
62
7
10
128.16041615609592
20
235.97542882138458
11
113.0085307007607
21
251.12731428624363
0
LINE
8
Layer_1
6
CONTINUOUS
62
7
10
110.88721037832025
20
274.85166501300034
11
89.28417998864569
21
274.8516650202746
0
LINE
8
Layer_1
6
CONTINUOUS
62
7
10
113.00853070076059
20
251.12731428898701
11
113.00853070900482
21
272.73034465656565
0
LINE
8
Layer_1
6
CONTINUOUS
62
7
10
110.88721037832025
20
274.85166501300034
11
113.00853070900482
21
272.73034465656565
0
LINE
8
Layer_1
6
CONTINUOUS
62
7
10
71.008530725784397
20
290.12731431375596
11
55.732881437579806
21
274.85166503652465
0
LINE
8
Layer_1
6
CONTINUOUS
62
7
10
89.284179986705738
20
274.85166502221443
11
74.008530725784397
21
290.12731429548057
0
LINE
8
Layer_1
6
CONTINUOUS
62
7
10
71.008530725784397
20
290.12731431375596
11
55.732881437579806
21
274.85166503652465
0
LINE
8
Layer_1
6
CONTINUOUS
62
7
10
71.008530725784397
20
290.12731431375596
11
74.008530725784397
21
290.12731429548057
0
LINE
8
Layer_1
6
CONTINUOUS
62
7
10
32.008530710727882
20
272.73034471514927
11
32.008530702483682
21
251.12731432547469
0
LINE
8
Layer_1
6
CONTINUOUS
62
7
10
55.732881434836486
20
274.85166503652465
11
34.129851067257789
21
274.85166504573863
0
LINE
8
Layer_1
6
CONTINUOUS
62
7
10
32.008530710727882
20
272.73034471514927
11
32.008530702483682
21
251.12731432547469
0
LINE
8
Layer_1
6
CONTINUOUS
62
7
10
32.008530710727882
20
272.73034471514927
11
34.129851067257789
21
274.85166504573863
0
LINE
8
Layer_1
6
CONTINUOUS
62
7
10
16.732881408181782
20
232.85166506329927
11
32.008530684727305
21
217.57601577440883
0
LINE
8
Layer_1
6
CONTINUOUS
62
7
10
32.008530700543957
20
251.12731432353473
11
16.732881426591945
21
235.85166506329927
0
LINE
8
Layer_1
6
CONTINUOUS
62
7
10
16.732881408181782
20
232.85166506329927
11
32.008530684727305
21
217.57601577440883
0
LINE
8
Layer_1
6
CONTINUOUS
62
7
10
34.129851005037523
20
193.85166504746175
11
55.732881394712109
21
193.85166503824769
0
LINE
8
Layer_1
6
CONTINUOUS
62
7
10
32.008530684727418
20
217.57601577166545
11
32.00853067454338
21
195.97298540408681
0
LINE
8
Layer_1
6
CONTINUOUS
62
7
10
34.129851005037523
20
193.85166504746175
11
32.00853067454338
21
195.97298540408681
0
LINE
8
Layer_1
6
CONTINUOUS
62
7
10
74.008530656201771
20
178.57601574312528
11
89.284179945777936
21
193.85166501898485
0
LINE
8
Layer_1
6
CONTINUOUS
62
7
10
55.732881396652061
20
193.85166503630774
11
71.008530656201771
21
178.57601576167005
0
LINE
8
Layer_1
6
CONTINUOUS
62
7
10
74.008530656201771
20
178.57601574312528
11
89.284179945777936
21
193.85166501898485
0
LINE
8
Layer_1
6
CONTINUOUS
62
7
10
113.00853067282029
20
195.97298533822993
11
113.00853068300435
21
217.57601572790452
0
POINT
8
Layer_1
6
CONTINUOUS
62
7
10
89.284179948521199
20
193.85166501898485
0
LINE
8
Layer_1
6
CONTINUOUS
62
7
10
16.732881426591945
20
235.85166506329927
11
16.732881408181782
21
232.85166506329927
0
LINE
8
Layer_1
6
CONTINUOUS
62
7
10
113.00853068300435
20
217.57601572790452
11
128.1604161555349
21
232.85166499946774
0
LINE
8
Layer_1
6
CONTINUOUS
62
7
10
71.008530656201771
20
178.57601576167005
11
74.008530656201771
21
178.57601574312528
0
LINE
8
Layer_1
6
CONTINUOUS
62
7
10
141.16041614854703
20
289.97534727536316
11
156.4360654298934
21
274.69969799127352
0
LINE
8
Layer_1
6
CONTINUOUS
62
7
10
180.16041615579292
20
272.57837765924671
11
180.16041615433812
21
250.97534726957213
0
LINE
8
Layer_1
6
CONTINUOUS
62
7
10
156.43606543263678
20
274.69969799127341
11
178.03909580021548
21
274.69969799078848
0
LINE
8
Layer_1
6
CONTINUOUS
62
7
10
180.16041615579292
20
272.57837765924671
11
180.16041615433812
21
250.97534726957213
0
LINE
8
Layer_1
6
CONTINUOUS
62
7
10
180.16041615579292
20
272.57837765924671
11
178.03909580021548
21
274.69969799078848
0
LINE
8
Layer_1
6
CONTINUOUS
62
7
10
195.4360654404349
20
232.69969800053843
11
180.16041615703114
21
217.42404871850636
0
LINE
8
Layer_1
6
CONTINUOUS
62
7
10
180.16041615627796
20
250.97534726763217
11
195.4360654233717
21
235.69969800053843
0
LINE
8
Layer_1
6
CONTINUOUS
62
7
10
195.4360654404349
20
232.69969800053843
11
195.4360654233717
21
235.69969800053843
0
LINE
8
Layer_1
6
CONTINUOUS
62
7
10
178.03909582606951
20
193.69969799251155
11
156.43606543639493
21
193.69969799299645
0
LINE
8
Layer_1
6
CONTINUOUS
62
7
10
180.16041615703108
20
217.42404871576298
11
180.16041615751601
21
195.82101834818423
0
LINE
8
Layer_1
6
CONTINUOUS
62
7
10
178.03909582606951
20
193.69969799251155
11
180.16041615751601
21
195.82101834818423
0
LINE
8
Layer_1
6
CONTINUOUS
62
7
10
156.43606543445497
20
193.69969799105661
11
141.16041616804705
21
178.42404872327717
0
LINE
8
Layer_1
6
CONTINUOUS
62
7
10
138.16041615779818
20
246.53232822555879
11
138.16041615876713
21
250.84896784276754
0
LINE
8
Layer_1
6
CONTINUOUS
62
7
10
138.16041615779818
20
246.53232822555879
11
138.16041615876713
21
250.84896784276754
0
LINE
8
Layer_1
6
CONTINUOUS
62
7
10
142.66041615547357
20
212.95096064902924
11
142.66041615358745
21
213.15806742945705
0
LINE
8
Layer_1
6
CONTINUOUS
62
7
10
139.38797167727665
20
251.19969799067468
11
138.16041615876713
21
250.84896784276754
0
LINE
8
Layer_1
6
CONTINUOUS
62
7
10
139.38797167727665
20
251.19969799067468
11
139.66041616212883
21
251.19969799063091
0
LINE
8
Layer_1
6
CONTINUOUS
62
7
10
138.16041615336843
20
221.8670677568262
11
138.16041615278692
21
217.55042813961745
0
LINE
8
Layer_1
6
CONTINUOUS
62
7
10
138.16041615336843
20
221.8670677568262
11
138.16041615278692
21
217.55042813961745
0
LINE
8
Layer_1
6
CONTINUOUS
62
7
10
139.38797167117048
20
217.19969799126937
11
138.16041615278692
21
217.55042813961745
0
LINE
8
Layer_1
6
CONTINUOUS
62
7
10
139.38797167117048
20
217.19969799126937
11
139.66041615254443
21
217.19969799121523
0
LINE
8
Layer_1
6
CONTINUOUS
62
7
10
139.66041617306158
20
289.98280777971155
11
141.16041614854703
21
289.97534727536316
0
LINE
8
Layer_1
6
CONTINUOUS
62
7
10
141.16041616804705
20
178.42404872327717
11
139.66041614161588
21
178.43150922787129
0
LINE
8
Layer_1
6
CONTINUOUS
62
7
10
138.16041615876713
20
250.84896784276754
11
138.16041615278692
21
217.55042813961745
0
LINE
8
Layer_1
6
CONTINUOUS
62
7
10
139.66041617306158
20
289.98280777971155
11
139.66041616212883
21
251.19969799063091
0
LINE
8
Layer_1
6
CONTINUOUS
62
7
10
139.66041615254443
20
217.19969799121523
11
139.66041614161588
21
178.43150922787129
0
POLYLINE
8
Layer_1
6
CONTINUOUS
62
7
66
1
10
0
20
0
70
129
40
0
41
0
0
VERTEX
8
Layer_1
6
CONTINUOUS
62
7
10
5
20
300
0
VERTEX
8
Layer_1
6
CONTINUOUS
62
7
10
205
20
300
0
VERTEX
8
Layer_1
6
CONTINUOUS
62
7
10
205
20
170
0
VERTEX
8
Layer_1
6
CONTINUOUS
62
7
10
5
20
170
0
VERTEX
8
Layer_1
6
CONTINUOUS
62
7
10
5
20
300
0
SEQEND
0
LINE
8
Layer_1
6
CONTINUOUS
62
7
10
128.16041615609592
20
235.97542882138458
11
128.16041615551268
21
232.72790119378934
0
ENDSEC
0
EOF
