0
SECTION
2
HEADER
9
$ANGDIR
70
0
9
$CHAMFERA
40
10
9
$CHAMFERB
40
10
9
$CLAYER
8
Layer_1
9
$EXTMAX
10
120.88029001713028
20
297.18993020937188
9
$EXTMIN
10
5.4377558452823678
20
21.189930209371909
9
$LIMMAX
10
610
20
305
9
$LIMMIN
10
0
20
0
9
$LTSCALE
40
10
9
$PLINEGEN
70
0
9
$TEXTSIZE
40
20
9
$GRIDUNIT
10
5
20
5
9
$SNAPUNIT
10
1
20
1
0
ENDSEC
0
SECTION
2
TABLES
0
TABLE
2
STYLE
70
1
0
STYLE
2
STANDARD
70
0
40
0
41
1
50
0
71
0
42
0.20000000000000001
3
txt
4

0
ENDTAB
0
TABLE
2
LTYPE
70
14
0
LTYPE
2
CONTINUOUS
70
0
3
Solid line
72
65
73
0
40
0
0
LTYPE
2
DOT
70
0
3
............................................
72
65
73
2
40
0.25
49
0
49
-0.25
0
LTYPE
2
HIDDEN
70
0
3
_ _ _ _ _ _ _ _ _ _ _ _ _ _ _ _ _ _ _ _ _ _ 
72
65
73
2
40
0.375
49
0.25
49
-0.125
0
LTYPE
2
TSLONGDASH
70
0
3
__ __ __ __ __ __ __ __ __ __ __ __ __ __ _ 
72
65
73
2
40
1.28
49
1
49
-0.28000000000000003
0
LTYPE
2
TSDASHDOT
70
0
3
______ . ______ . ______ . ______ . ______ .
72
65
73
4
40
1.28
49
1
49
-0.14000000000000001
49
0
49
-0.14000000000000001
0
LTYPE
2
TSCENTER
70
0
3
______ _ ______ _ ______ _ ______ _ ______ _
72
65
73
4
40
2
49
1.5
49
-0.17999999999999999
49
0.14000000000000001
49
-0.17999999999999999
0
LTYPE
2
TSPHANTOM
70
0
3
_____ _ _ _____ _ _ _____ _ _ _____ _ _ ____
72
65
73
6
40
2.5
49
1.6299999999999999
49
-0.19
49
0.14999999999999999
49
-0.19
49
0.14999999999999999
49
-0.19
0
LTYPE
2
DASHED
70
0
3
__ __ __ __ __ __ __ __ __ __ __ __ __ __ __
72
65
73
2
40
0.75
49
0.5
49
-0.25
0
LTYPE
2
CENTER
70
0
3
____ _ ____ _ ____ _ ____ _ ____ _ ____ _ __
72
65
73
4
40
2
49
1.25
49
-0.25
49
0.25
49
-0.25
0
LTYPE
2
PHANTOM
70
0
3
_____ _ _ _____ _ _ _____ _ _ _____ _ _ ____
72
65
73
6
40
2.5
49
1.25
49
-0.25
49
0.25
49
-0.25
49
0.25
49
-0.25
0
LTYPE
2
DASHDOT
70
0
3
__ . __ . __ . __ . __ . __ . __ . __ . __ .
72
65
73
4
40
1
49
0.5
49
-0.25
49
0
49
-0.25
0
LTYPE
2
BORDER
70
0
3
__ __ . __ __ . __ __ . __ __ . __ __ . __ _
72
65
73
6
40
1.75
49
0.5
49
-0.25
49
0.5
49
-0.25
49
0
49
-0.25
0
LTYPE
2
DIVIDE
70
0
3
__ . . __ . . __ . . __ . . __ . . __ . . __
72
65
73
6
40
1.25
49
0.5
49
-0.25
49
0
49
-0.25
49
0
49
-0.25
0
ENDTAB
0
TABLE
2
LAYER
70
5
0
LAYER
2
Layer_1
70
0
62
7
6
CONTINUOUS
0
LAYER
2
Layer_2
70
0
62
7
6
CONTINUOUS
0
LAYER
2
Layer_3
70
0
62
7
6
CONTINUOUS
0
LAYER
2
0
70
0
62
7
6
CONTINUOUS
0
LAYER
2
TEXT
70
0
62
7
6
CONTINUOUS
0
ENDTAB
0
ENDSEC
0
SECTION
2
ENTITIES
0
LINE
8
0
6
CONTINUOUS
62
7
10
45.758100426012106
20
201.38484420937192
11
60.953013426012092
21
186.18993020937191
0
LINE
8
0
6
CONTINUOUS
62
7
10
24.2692474260121
20
201.38484420937192
11
45.758100426012106
21
201.38484420937192
0
LINE
8
0
6
CONTINUOUS
62
7
10
22.147927426012075
20
203.50616420937192
11
24.2692474260121
21
201.38484420937192
0
LINE
8
0
6
CONTINUOUS
62
7
10
22.147927426012075
20
203.50616420937192
11
22.147927426012075
21
224.99501720937189
0
LINE
8
0
6
CONTINUOUS
62
7
10
6.9530134260120917
20
240.18993020937191
11
22.147927426012075
21
224.99501720937189
0
LINE
8
0
6
CONTINUOUS
62
7
10
6.9530134260120917
20
240.18993020937191
11
6.9530134260120917
21
243.18993020937191
0
LINE
8
0
6
CONTINUOUS
62
7
10
6.9530134260120917
20
243.18993020937191
11
22.147927426012075
21
258.38484420937192
0
LINE
8
0
6
CONTINUOUS
62
7
10
22.147927426012075
20
258.38484420937192
11
22.147927426012075
21
279.87369620937193
0
LINE
8
0
6
CONTINUOUS
62
7
10
22.147927426012075
20
279.87369620937193
11
24.2692474260121
21
281.99501720937189
0
LINE
8
0
6
CONTINUOUS
62
7
10
24.2692474260121
20
281.99501720937189
11
45.758100426012106
21
281.99501720937189
0
LINE
8
0
6
CONTINUOUS
62
7
10
45.758100426012106
20
281.99501720937189
11
60.953013426012092
21
297.18993020937188
0
LINE
8
0
6
CONTINUOUS
62
7
10
60.953013426012092
20
291.10161820937191
11
60.953013426012092
21
297.18993020937188
0
LINE
8
0
6
CONTINUOUS
62
7
10
51.846411426012082
20
281.99501720937189
11
60.953013426012092
21
291.10161820937191
0
LINE
8
0
6
CONTINUOUS
62
7
10
51.846411426012082
20
281.99501720937189
11
60.953013426012092
21
272.88841520937189
0
LINE
8
0
6
CONTINUOUS
62
7
10
60.953013426012092
20
241.68993020937191
11
60.953013426012092
21
272.88841520937189
0
LINE
8
0
6
CONTINUOUS
62
7
10
60.953013426012092
20
241.68993020937191
11
63.953013426012092
21
241.68993020937191
0
LINE
8
0
6
CONTINUOUS
62
7
10
63.953013426012092
20
241.68993020937191
11
63.953013426012092
21
272.88841520937189
0
LINE
8
0
6
CONTINUOUS
62
7
10
63.953013426012092
20
272.88841520937189
11
73.059615426012101
21
281.99501720937189
0
LINE
8
0
6
CONTINUOUS
62
7
10
63.953013426012092
20
291.10161820937191
11
73.059615426012101
21
281.99501720937189
0
LINE
8
0
6
CONTINUOUS
62
7
10
63.953013426012092
20
291.10161820937191
11
63.953013426012092
21
297.18993020937188
0
LINE
8
0
6
CONTINUOUS
62
7
10
63.953013426012092
20
297.18993020937188
11
79.147927426012075
21
281.99501720937189
0
LINE
8
0
6
CONTINUOUS
62
7
10
79.147927426012075
20
281.99501720937189
11
100.63677942601214
21
281.99501720937189
0
LINE
8
0
6
CONTINUOUS
62
7
10
100.63677942601214
20
281.99501720937189
11
102.75810042601211
21
279.87369620937193
0
LINE
8
0
6
CONTINUOUS
62
7
10
102.75810042601211
20
258.38484420937192
11
102.75810042601211
21
279.87369620937193
0
LINE
8
0
6
CONTINUOUS
62
7
10
102.75810042601211
20
258.38484420937192
11
117.95301342601203
21
243.18993020937191
0
LINE
8
0
6
CONTINUOUS
62
7
10
117.95301342601203
20
240.18993020937191
11
117.95301342601203
21
243.18993020937191
0
LINE
8
0
6
CONTINUOUS
62
7
10
102.75810042601211
20
224.99501720937189
11
117.95301342601203
21
240.18993020937191
0
LINE
8
0
6
CONTINUOUS
62
7
10
102.75810042601211
20
203.50616420937192
11
102.75810042601211
21
224.99501720937189
0
LINE
8
0
6
CONTINUOUS
62
7
10
100.63677942601214
20
201.38484420937192
11
102.75810042601211
21
203.50616420937192
0
LINE
8
0
6
CONTINUOUS
62
7
10
79.147927426012075
20
201.38484420937192
11
100.63677942601214
21
201.38484420937192
0
LINE
8
0
6
CONTINUOUS
62
7
10
63.953013426012092
20
186.18993020937191
11
79.147927426012075
21
201.38484420937192
0
LINE
8
0
6
CONTINUOUS
62
7
10
60.953013426012092
20
186.18993020937191
11
63.953013426012092
21
186.18993020937191
0
LINE
8
0
6
CONTINUOUS
62
7
10
83.453013426012035
20
250.38841520937189
11
83.453013426012035
21
258.68993020937188
0
LINE
8
0
6
CONTINUOUS
62
7
10
83.453013426012035
20
250.38841520937189
11
89.15149842601204
21
244.68993020937191
0
LINE
8
0
6
CONTINUOUS
62
7
10
89.15149842601204
20
244.68993020937191
11
89.494644426012087
21
244.68993020937191
0
LINE
8
0
6
CONTINUOUS
62
7
10
89.494644426012087
20
244.68993020937191
11
99.929672426012075
21
255.12495920937192
0
LINE
8
0
6
CONTINUOUS
62
7
10
98.453013426012035
20
256.60161820937191
11
99.929672426012075
21
255.12495920937192
0
LINE
8
0
6
CONTINUOUS
62
7
10
98.453013426012035
20
256.60161820937191
11
98.453013426012035
21
258.68993020937188
0
LINE
8
0
6
CONTINUOUS
62
7
10
83.453013426012035
20
258.68993020937188
11
98.453013426012035
21
258.68993020937188
0
LINE
8
0
6
CONTINUOUS
62
7
10
71.151498426012097
20
220.68993020937191
11
79.453013426012149
21
220.68993020937191
0
LINE
8
0
6
CONTINUOUS
62
7
10
65.453013426012092
20
214.9914452093719
11
71.151498426012097
21
220.68993020937191
0
LINE
8
0
6
CONTINUOUS
62
7
10
65.453013426012092
20
214.64830020937191
11
65.453013426012092
21
214.9914452093719
0
LINE
8
0
6
CONTINUOUS
62
7
10
65.453013426012092
20
214.64830020937191
11
75.888042426012134
21
204.2132712093719
0
LINE
8
0
6
CONTINUOUS
62
7
10
75.888042426012134
20
204.2132712093719
11
77.364701426012061
21
205.68993020937191
0
LINE
8
0
6
CONTINUOUS
62
7
10
77.364701426012061
20
205.68993020937191
11
79.453013426012149
21
205.68993020937191
0
LINE
8
0
6
CONTINUOUS
62
7
10
79.453013426012149
20
205.68993020937191
11
79.453013426012149
21
220.68993020937191
0
LINE
8
0
6
CONTINUOUS
62
7
10
59.453013426012092
20
268.38841520937189
11
59.453013426012092
21
268.73156120937193
0
LINE
8
0
6
CONTINUOUS
62
7
10
49.017984426012049
20
279.16659020937192
11
59.453013426012092
21
268.73156120937193
0
LINE
8
0
6
CONTINUOUS
62
7
10
47.541325426012122
20
277.68993020937188
11
49.017984426012049
21
279.16659020937192
0
LINE
8
0
6
CONTINUOUS
62
7
10
45.453013426012092
20
277.68993020937188
11
47.541325426012122
21
277.68993020937188
0
LINE
8
0
6
CONTINUOUS
62
7
10
45.453013426012092
20
262.68993020937188
11
45.453013426012092
21
277.68993020937188
0
LINE
8
0
6
CONTINUOUS
62
7
10
45.453013426012092
20
262.68993020937188
11
53.754528426012087
21
262.68993020937188
0
LINE
8
0
6
CONTINUOUS
62
7
10
53.754528426012087
20
262.68993020937188
11
59.453013426012092
21
268.38841520937189
0
LINE
8
0
6
CONTINUOUS
62
7
10
69.453013426012092
20
243.18993020937191
11
79.453013426012149
21
243.18993020937191
0
LINE
8
0
6
CONTINUOUS
62
7
10
69.453013426012092
20
240.18993020937191
11
69.453013426012092
21
243.18993020937191
0
LINE
8
0
6
CONTINUOUS
62
7
10
69.453013426012092
20
240.18993020937191
11
79.453013426012149
21
240.18993020937191
0
LINE
8
0
6
CONTINUOUS
62
7
10
79.453013426012149
20
240.18993020937191
11
79.453013426012149
21
243.18993020937191
0
LINE
8
0
6
CONTINUOUS
62
7
10
51.846411426012082
20
201.38484420937192
11
62.453013426012092
21
211.9914452093719
0
LINE
8
0
6
CONTINUOUS
62
7
10
51.846411426012082
20
201.38484420937192
11
60.953013426012092
21
192.27824220937191
0
LINE
8
0
6
CONTINUOUS
62
7
10
60.953013426012092
20
192.27824220937191
11
63.953013426012092
21
192.27824220937191
0
LINE
8
0
6
CONTINUOUS
62
7
10
63.953013426012092
20
192.27824220937191
11
73.059615426012101
21
201.38484420937192
0
LINE
8
0
6
CONTINUOUS
62
7
10
62.453013426012092
20
211.9914452093719
11
73.059615426012101
21
201.38484420937192
0
LINE
8
0
6
CONTINUOUS
62
7
10
13.041325426012122
20
240.18993020937191
11
13.041325426012122
21
243.18993020937191
0
LINE
8
0
6
CONTINUOUS
62
7
10
13.041325426012122
20
240.18993020937191
11
22.147927426012075
21
231.0833282093719
0
LINE
8
0
6
CONTINUOUS
62
7
10
22.147927426012075
20
231.0833282093719
11
32.754528426012087
21
241.68993020937191
0
LINE
8
0
6
CONTINUOUS
62
7
10
22.147927426012075
20
252.29653220937189
11
32.754528426012087
21
241.68993020937191
0
LINE
8
0
6
CONTINUOUS
62
7
10
13.041325426012122
20
243.18993020937191
11
22.147927426012075
21
252.29653220937189
0
LINE
8
0
6
CONTINUOUS
62
7
10
45.453013426012092
20
224.68993020937191
11
55.411382426012096
21
224.68993020937191
0
LINE
8
0
6
CONTINUOUS
62
7
10
55.411382426012096
20
224.68993020937191
11
59.453013426012092
21
220.64830020937191
0
LINE
8
0
6
CONTINUOUS
62
7
10
59.453013426012092
20
220.64830020937191
11
59.453013426012092
21
238.68993020937191
0
LINE
8
0
6
CONTINUOUS
62
7
10
41.411382426012096
20
238.68993020937191
11
59.453013426012092
21
238.68993020937191
0
LINE
8
0
6
CONTINUOUS
62
7
10
41.411382426012096
20
238.68993020937191
11
45.453013426012092
21
234.64830020937191
0
LINE
8
0
6
CONTINUOUS
62
7
10
45.453013426012092
20
224.68993020937191
11
45.453013426012092
21
234.64830020937191
0
LINE
8
0
6
CONTINUOUS
62
7
10
65.453013426012092
20
244.68993020937191
11
65.453013426012092
21
262.73156120937193
0
LINE
8
0
6
CONTINUOUS
62
7
10
65.453013426012092
20
244.68993020937191
11
83.494644426012087
21
244.68993020937191
0
LINE
8
0
6
CONTINUOUS
62
7
10
79.453013426012149
20
248.7315612093719
11
83.494644426012087
21
244.68993020937191
0
LINE
8
0
6
CONTINUOUS
62
7
10
79.453013426012149
20
248.7315612093719
11
79.453013426012149
21
258.68993020937188
0
LINE
8
0
6
CONTINUOUS
62
7
10
69.494644426012087
20
258.68993020937188
11
79.453013426012149
21
258.68993020937188
0
LINE
8
0
6
CONTINUOUS
62
7
10
65.453013426012092
20
262.73156120937193
11
69.494644426012087
21
258.68993020937188
0
LINE
8
0
6
CONTINUOUS
62
7
10
26.453013426012092
20
256.60161820937191
11
26.453013426012092
21
258.68993020937188
0
LINE
8
0
6
CONTINUOUS
62
7
10
24.976354426012108
20
255.12495920937192
11
26.453013426012092
21
256.60161820937191
0
LINE
8
0
6
CONTINUOUS
62
7
10
24.976354426012108
20
255.12495920937192
11
35.411382426012096
21
244.68993020937191
0
LINE
8
0
6
CONTINUOUS
62
7
10
35.411382426012096
20
244.68993020937191
11
35.754528426012087
21
244.68993020937191
0
LINE
8
0
6
CONTINUOUS
62
7
10
35.754528426012087
20
244.68993020937191
11
41.453013426012092
21
250.38841520937189
0
LINE
8
0
6
CONTINUOUS
62
7
10
41.453013426012092
20
250.38841520937189
11
41.453013426012092
21
258.68993020937188
0
LINE
8
0
6
CONTINUOUS
62
7
10
26.453013426012092
20
258.68993020937188
11
41.453013426012092
21
258.68993020937188
0
LINE
8
0
6
CONTINUOUS
62
7
10
41.411382426012096
20
244.68993020937191
11
45.453013426012092
21
248.7315612093719
0
LINE
8
0
6
CONTINUOUS
62
7
10
41.411382426012096
20
244.68993020937191
11
59.453013426012092
21
244.68993020937191
0
LINE
8
0
6
CONTINUOUS
62
7
10
59.453013426012092
20
244.68993020937191
11
59.453013426012092
21
262.73156120937193
0
LINE
8
0
6
CONTINUOUS
62
7
10
55.411382426012096
20
258.68993020937188
11
59.453013426012092
21
262.73156120937193
0
LINE
8
0
6
CONTINUOUS
62
7
10
45.453013426012092
20
258.68993020937188
11
55.411382426012096
21
258.68993020937188
0
LINE
8
0
6
CONTINUOUS
62
7
10
45.453013426012092
20
248.7315612093719
11
45.453013426012092
21
258.68993020937188
0
LINE
8
0
6
CONTINUOUS
62
7
10
45.453013426012092
20
205.68993020937191
11
47.541325426012122
21
205.68993020937191
0
LINE
8
0
6
CONTINUOUS
62
7
10
47.541325426012122
20
205.68993020937191
11
49.017984426012049
21
204.2132712093719
0
LINE
8
0
6
CONTINUOUS
62
7
10
49.017984426012049
20
204.2132712093719
11
59.453013426012092
21
214.64830020937191
0
LINE
8
0
6
CONTINUOUS
62
7
10
59.453013426012092
20
214.64830020937191
11
59.453013426012092
21
214.9914452093719
0
LINE
8
0
6
CONTINUOUS
62
7
10
53.754528426012087
20
220.68993020937191
11
59.453013426012092
21
214.9914452093719
0
LINE
8
0
6
CONTINUOUS
62
7
10
45.453013426012092
20
220.68993020937191
11
53.754528426012087
21
220.68993020937191
0
LINE
8
0
6
CONTINUOUS
62
7
10
45.453013426012092
20
205.68993020937191
11
45.453013426012092
21
220.68993020937191
0
LINE
8
0
6
CONTINUOUS
62
7
10
26.453013426012092
20
275.56861020937191
11
28.574333426012117
21
277.68993020937188
0
LINE
8
0
6
CONTINUOUS
62
7
10
26.453013426012092
20
262.68993020937188
11
26.453013426012092
21
275.56861020937191
0
LINE
8
0
6
CONTINUOUS
62
7
10
26.453013426012092
20
262.68993020937188
11
41.453013426012092
21
262.68993020937188
0
LINE
8
0
6
CONTINUOUS
62
7
10
41.453013426012092
20
262.68993020937188
11
41.453013426012092
21
277.68993020937188
0
LINE
8
0
6
CONTINUOUS
62
7
10
28.574333426012117
20
277.68993020937188
11
41.453013426012092
21
277.68993020937188
0
LINE
8
0
6
CONTINUOUS
62
7
10
83.453013426012035
20
220.68993020937191
11
98.453013426012035
21
220.68993020937191
0
LINE
8
0
6
CONTINUOUS
62
7
10
83.453013426012035
20
205.68993020937191
11
83.453013426012035
21
220.68993020937191
0
LINE
8
0
6
CONTINUOUS
62
7
10
83.453013426012035
20
205.68993020937191
11
96.331693426012066
21
205.68993020937191
0
LINE
8
0
6
CONTINUOUS
62
7
10
96.331693426012066
20
205.68993020937191
11
98.453013426012035
21
207.81125020937191
0
LINE
8
0
6
CONTINUOUS
62
7
10
98.453013426012035
20
207.81125020937191
11
98.453013426012035
21
220.68993020937191
0
LINE
8
0
6
CONTINUOUS
62
7
10
79.453013426012149
20
262.68993020937188
11
79.453013426012149
21
277.68993020937188
0
LINE
8
0
6
CONTINUOUS
62
7
10
77.364701426012061
20
277.68993020937188
11
79.453013426012149
21
277.68993020937188
0
LINE
8
0
6
CONTINUOUS
62
7
10
75.888042426012134
20
279.16659020937192
11
77.364701426012061
21
277.68993020937188
0
LINE
8
0
6
CONTINUOUS
62
7
10
65.453013426012092
20
268.73156120937193
11
75.888042426012134
21
279.16659020937192
0
LINE
8
0
6
CONTINUOUS
62
7
10
65.453013426012092
20
268.38841520937189
11
65.453013426012092
21
268.73156120937193
0
LINE
8
0
6
CONTINUOUS
62
7
10
65.453013426012092
20
268.38841520937189
11
71.151498426012097
21
262.68993020937188
0
LINE
8
0
6
CONTINUOUS
62
7
10
71.151498426012097
20
262.68993020937188
11
79.453013426012149
21
262.68993020937188
0
LINE
8
0
6
CONTINUOUS
62
7
10
92.15149842601204
20
241.68993020937191
11
102.75810042601211
21
231.0833282093719
0
LINE
8
0
6
CONTINUOUS
62
7
10
102.75810042601211
20
231.0833282093719
11
111.86470142601206
21
240.18993020937191
0
LINE
8
0
6
CONTINUOUS
62
7
10
111.86470142601206
20
240.18993020937191
11
111.86470142601206
21
243.18993020937191
0
LINE
8
0
6
CONTINUOUS
62
7
10
102.75810042601211
20
252.29653220937189
11
111.86470142601206
21
243.18993020937191
0
LINE
8
0
6
CONTINUOUS
62
7
10
92.15149842601204
20
241.68993020937191
11
102.75810042601211
21
252.29653220937189
0
LINE
8
0
6
CONTINUOUS
62
7
10
98.453013426012035
20
224.68993020937191
11
98.453013426012035
21
226.77824220937191
0
LINE
8
0
6
CONTINUOUS
62
7
10
98.453013426012035
20
226.77824220937191
11
99.929672426012075
21
228.25490120937189
0
LINE
8
0
6
CONTINUOUS
62
7
10
89.494644426012087
20
238.68993020937191
11
99.929672426012075
21
228.25490120937189
0
LINE
8
0
6
CONTINUOUS
62
7
10
89.15149842601204
20
238.68993020937191
11
89.494644426012087
21
238.68993020937191
0
LINE
8
0
6
CONTINUOUS
62
7
10
83.453013426012035
20
232.9914452093719
11
89.15149842601204
21
238.68993020937191
0
LINE
8
0
6
CONTINUOUS
62
7
10
83.453013426012035
20
224.68993020937191
11
83.453013426012035
21
232.9914452093719
0
LINE
8
0
6
CONTINUOUS
62
7
10
83.453013426012035
20
224.68993020937191
11
98.453013426012035
21
224.68993020937191
0
LINE
8
0
6
CONTINUOUS
62
7
10
55.453013426012092
20
240.18993020937191
11
55.453013426012092
21
243.18993020937191
0
LINE
8
0
6
CONTINUOUS
62
7
10
45.453013426012092
20
243.18993020937191
11
55.453013426012092
21
243.18993020937191
0
LINE
8
0
6
CONTINUOUS
62
7
10
45.453013426012092
20
240.18993020937191
11
45.453013426012092
21
243.18993020937191
0
LINE
8
0
6
CONTINUOUS
62
7
10
45.453013426012092
20
240.18993020937191
11
55.453013426012092
21
240.18993020937191
0
LINE
8
0
6
CONTINUOUS
62
7
10
41.453013426012092
20
205.68993020937191
11
41.453013426012092
21
220.68993020937191
0
LINE
8
0
6
CONTINUOUS
62
7
10
26.453013426012092
20
220.68993020937191
11
41.453013426012092
21
220.68993020937191
0
LINE
8
0
6
CONTINUOUS
62
7
10
26.453013426012092
20
207.81125020937191
11
26.453013426012092
21
220.68993020937191
0
LINE
8
0
6
CONTINUOUS
62
7
10
26.453013426012092
20
207.81125020937191
11
28.574333426012117
21
205.68993020937191
0
LINE
8
0
6
CONTINUOUS
62
7
10
28.574333426012117
20
205.68993020937191
11
41.453013426012092
21
205.68993020937191
0
LINE
8
0
6
CONTINUOUS
62
7
10
65.453013426012092
20
238.68993020937191
11
83.494644426012087
21
238.68993020937191
0
LINE
8
0
6
CONTINUOUS
62
7
10
65.453013426012092
20
220.64830020937191
11
65.453013426012092
21
238.68993020937191
0
LINE
8
0
6
CONTINUOUS
62
7
10
65.453013426012092
20
220.64830020937191
11
69.494644426012087
21
224.68993020937191
0
LINE
8
0
6
CONTINUOUS
62
7
10
69.494644426012087
20
224.68993020937191
11
79.453013426012149
21
224.68993020937191
0
LINE
8
0
6
CONTINUOUS
62
7
10
79.453013426012149
20
224.68993020937191
11
79.453013426012149
21
234.64830020937191
0
LINE
8
0
6
CONTINUOUS
62
7
10
79.453013426012149
20
234.64830020937191
11
83.494644426012087
21
238.68993020937191
0
LINE
8
0
6
CONTINUOUS
62
7
10
98.453013426012035
20
262.68993020937188
11
98.453013426012035
21
275.56861020937191
0
LINE
8
0
6
CONTINUOUS
62
7
10
96.331693426012066
20
277.68993020937188
11
98.453013426012035
21
275.56861020937191
0
LINE
8
0
6
CONTINUOUS
62
7
10
83.453013426012035
20
277.68993020937188
11
96.331693426012066
21
277.68993020937188
0
LINE
8
0
6
CONTINUOUS
62
7
10
83.453013426012035
20
262.68993020937188
11
83.453013426012035
21
277.68993020937188
0
LINE
8
0
6
CONTINUOUS
62
7
10
83.453013426012035
20
262.68993020937188
11
98.453013426012035
21
262.68993020937188
0
LINE
8
0
6
CONTINUOUS
62
7
10
8.5413254260121221
20
240.18993020937191
11
8.5413254260121221
21
243.18993020937191
0
LINE
8
0
6
CONTINUOUS
62
7
10
8.5413254260121221
20
240.18993020937191
11
11.541325426012122
21
240.18993020937191
0
LINE
8
0
6
CONTINUOUS
62
7
10
11.541325426012122
20
240.18993020937191
11
11.541325426012122
21
243.18993020937191
0
LINE
8
0
6
CONTINUOUS
62
7
10
8.5413254260121221
20
243.18993020937191
11
11.541325426012122
21
243.18993020937191
0
LINE
8
0
6
CONTINUOUS
62
7
10
24.976354426012108
20
228.25490120937189
11
26.453013426012092
21
226.77824220937191
0
LINE
8
0
6
CONTINUOUS
62
7
10
26.453013426012092
20
224.68993020937191
11
26.453013426012092
21
226.77824220937191
0
LINE
8
0
6
CONTINUOUS
62
7
10
26.453013426012092
20
224.68993020937191
11
41.453013426012092
21
224.68993020937191
0
LINE
8
0
6
CONTINUOUS
62
7
10
41.453013426012092
20
224.68993020937191
11
41.453013426012092
21
232.9914452093719
0
LINE
8
0
6
CONTINUOUS
62
7
10
35.754528426012087
20
238.68993020937191
11
41.453013426012092
21
232.9914452093719
0
LINE
8
0
6
CONTINUOUS
62
7
10
35.411382426012096
20
238.68993020937191
11
35.754528426012087
21
238.68993020937191
0
LINE
8
0
6
CONTINUOUS
62
7
10
24.976354426012108
20
228.25490120937189
11
35.411382426012096
21
238.68993020937191
0
LINE
8
0
6
CONTINUOUS
62
7
10
113.36470142601206
20
240.18993020937191
11
116.36470142601206
21
240.18993020937191
0
LINE
8
0
6
CONTINUOUS
62
7
10
116.36470142601206
20
240.18993020937191
11
116.36470142601206
21
243.18993020937191
0
LINE
8
0
6
CONTINUOUS
62
7
10
113.36470142601206
20
243.18993020937191
11
116.36470142601206
21
243.18993020937191
0
LINE
8
0
6
CONTINUOUS
62
7
10
113.36470142601206
20
240.18993020937191
11
113.36470142601206
21
243.18993020937191
0
LINE
8
0
6
CONTINUOUS
62
7
10
63.953013426012092
20
45.491445209371904
11
73.059615426012101
21
36.384844209371906
0
LINE
8
0
6
CONTINUOUS
62
7
10
63.953013426012092
20
45.491445209371904
11
63.953013426012092
21
76.689930209371909
0
LINE
8
0
6
CONTINUOUS
62
7
10
60.953013426012092
20
76.689930209371909
11
63.953013426012092
21
76.689930209371909
0
LINE
8
0
6
CONTINUOUS
62
7
10
60.953013426012092
20
45.491445209371904
11
60.953013426012092
21
76.689930209371909
0
LINE
8
0
6
CONTINUOUS
62
7
10
51.846411426012082
20
36.384844209371906
11
60.953013426012092
21
45.491445209371904
0
LINE
8
0
6
CONTINUOUS
62
7
10
51.846411426012082
20
36.384844209371906
11
60.953013426012092
21
27.278242209371911
0
LINE
8
0
6
CONTINUOUS
62
7
10
60.953013426012092
20
21.189930209371909
11
60.953013426012092
21
27.278242209371911
0
LINE
8
0
6
CONTINUOUS
62
7
10
45.758100426012106
20
36.384844209371906
11
60.953013426012092
21
21.189930209371909
0
LINE
8
0
6
CONTINUOUS
62
7
10
24.2692474260121
20
36.384844209371906
11
45.758100426012106
21
36.384844209371906
0
LINE
8
0
6
CONTINUOUS
62
7
10
22.147927426012075
20
38.506164209371903
11
24.2692474260121
21
36.384844209371906
0
LINE
8
0
6
CONTINUOUS
62
7
10
22.147927426012075
20
38.506164209371903
11
22.147927426012075
21
59.995017209371909
0
LINE
8
0
6
CONTINUOUS
62
7
10
6.9530134260120917
20
75.189930209371909
11
22.147927426012075
21
59.995017209371909
0
LINE
8
0
6
CONTINUOUS
62
7
10
6.9530134260120917
20
75.189930209371909
11
10.453013426012092
21
75.189930209371909
0
LINE
8
0
6
CONTINUOUS
62
7
10
10.453013426012092
20
75.189930209371909
11
10.453013426012092
21
78.189930209371909
0
LINE
8
0
6
CONTINUOUS
62
7
10
6.9530134260120917
20
78.189930209371909
11
10.453013426012092
21
78.189930209371909
0
LINE
8
0
6
CONTINUOUS
62
7
10
6.9530134260120917
20
78.189930209371909
11
22.147927426012075
21
93.38484420937192
0
LINE
8
0
6
CONTINUOUS
62
7
10
22.147927426012075
20
93.38484420937192
11
22.147927426012075
21
114.8736962093719
0
LINE
8
0
6
CONTINUOUS
62
7
10
22.147927426012075
20
114.8736962093719
11
24.2692474260121
21
116.99501720937189
0
LINE
8
0
6
CONTINUOUS
62
7
10
24.2692474260121
20
116.99501720937189
11
45.758100426012106
21
116.99501720937189
0
LINE
8
0
6
CONTINUOUS
62
7
10
45.758100426012106
20
116.99501720937189
11
60.953013426012092
21
132.18993020937191
0
LINE
8
0
6
CONTINUOUS
62
7
10
60.953013426012092
20
132.18993020937191
11
63.953013426012092
21
132.18993020937191
0
LINE
8
0
6
CONTINUOUS
62
7
10
63.953013426012092
20
132.18993020937191
11
79.147927426012075
21
116.99501720937189
0
LINE
8
0
6
CONTINUOUS
62
7
10
79.147927426012075
20
116.99501720937189
11
100.63677942601214
21
116.99501720937189
0
LINE
8
0
6
CONTINUOUS
62
7
10
100.63677942601214
20
116.99501720937189
11
102.75810042601211
21
114.8736962093719
0
LINE
8
0
6
CONTINUOUS
62
7
10
102.75810042601211
20
93.38484420937192
11
102.75810042601211
21
114.8736962093719
0
LINE
8
0
6
CONTINUOUS
62
7
10
102.75810042601211
20
93.38484420937192
11
117.95301342601203
21
78.189930209371909
0
LINE
8
0
6
CONTINUOUS
62
7
10
114.45301342601203
20
78.189930209371909
11
117.95301342601203
21
78.189930209371909
0
LINE
8
0
6
CONTINUOUS
62
7
10
114.45301342601203
20
75.189930209371909
11
114.45301342601203
21
78.189930209371909
0
LINE
8
0
6
CONTINUOUS
62
7
10
114.45301342601203
20
75.189930209371909
11
117.95301342601203
21
75.189930209371909
0
LINE
8
0
6
CONTINUOUS
62
7
10
102.75810042601211
20
59.995017209371909
11
117.95301342601203
21
75.189930209371909
0
LINE
8
0
6
CONTINUOUS
62
7
10
102.75810042601211
20
38.506164209371903
11
102.75810042601211
21
59.995017209371909
0
LINE
8
0
6
CONTINUOUS
62
7
10
100.63677942601214
20
36.384844209371906
11
102.75810042601211
21
38.506164209371903
0
LINE
8
0
6
CONTINUOUS
62
7
10
79.147927426012075
20
36.384844209371906
11
100.63677942601214
21
36.384844209371906
0
LINE
8
0
6
CONTINUOUS
62
7
10
63.953013426012092
20
21.189930209371909
11
79.147927426012075
21
36.384844209371906
0
LINE
8
0
6
CONTINUOUS
62
7
10
63.953013426012092
20
21.189930209371909
11
63.953013426012092
21
27.278242209371911
0
LINE
8
0
6
CONTINUOUS
62
7
10
63.953013426012092
20
27.278242209371911
11
73.059615426012101
21
36.384844209371906
0
LINE
8
0
6
CONTINUOUS
62
7
10
47.541325426012122
20
112.68993020937191
11
49.017984426012049
21
114.16659020937192
0
LINE
8
0
6
CONTINUOUS
62
7
10
45.453013426012092
20
112.68993020937191
11
47.541325426012122
21
112.68993020937191
0
LINE
8
0
6
CONTINUOUS
62
7
10
45.453013426012092
20
97.689930209371909
11
45.453013426012092
21
112.68993020937191
0
LINE
8
0
6
CONTINUOUS
62
7
10
45.453013426012092
20
97.689930209371909
11
53.754528426012087
21
97.689930209371909
0
LINE
8
0
6
CONTINUOUS
62
7
10
53.754528426012087
20
97.689930209371909
11
59.453013426012092
21
103.38841520937191
0
LINE
8
0
6
CONTINUOUS
62
7
10
59.453013426012092
20
103.38841520937191
11
59.453013426012092
21
103.7315612093719
0
LINE
8
0
6
CONTINUOUS
62
7
10
49.017984426012049
20
114.16659020937192
11
59.453013426012092
21
103.7315612093719
0
LINE
8
0
6
CONTINUOUS
62
7
10
26.453013426012092
20
93.689930209371909
11
41.453013426012092
21
93.689930209371909
0
LINE
8
0
6
CONTINUOUS
62
7
10
26.453013426012092
20
91.601618209371907
11
26.453013426012092
21
93.689930209371909
0
LINE
8
0
6
CONTINUOUS
62
7
10
24.976354426012108
20
90.124959209371895
11
26.453013426012092
21
91.601618209371907
0
LINE
8
0
6
CONTINUOUS
62
7
10
24.976354426012108
20
90.124959209371895
11
35.411382426012096
21
79.689930209371909
0
LINE
8
0
6
CONTINUOUS
62
7
10
35.411382426012096
20
79.689930209371909
11
35.754528426012087
21
79.689930209371909
0
LINE
8
0
6
CONTINUOUS
62
7
10
35.754528426012087
20
79.689930209371909
11
41.453013426012092
21
85.388415209371914
0
LINE
8
0
6
CONTINUOUS
62
7
10
41.453013426012092
20
85.388415209371914
11
41.453013426012092
21
93.689930209371909
0
LINE
8
0
6
CONTINUOUS
62
7
10
45.453013426012092
20
40.689930209371909
11
45.453013426012092
21
55.689930209371909
0
LINE
8
0
6
CONTINUOUS
62
7
10
45.453013426012092
20
40.689930209371909
11
47.541325426012122
21
40.689930209371909
0
LINE
8
0
6
CONTINUOUS
62
7
10
47.541325426012122
20
40.689930209371909
11
49.017984426012049
21
39.213271209371911
0
LINE
8
0
6
CONTINUOUS
62
7
10
49.017984426012049
20
39.213271209371911
11
59.453013426012092
21
49.648300209371911
0
LINE
8
0
6
CONTINUOUS
62
7
10
59.453013426012092
20
49.648300209371911
11
59.453013426012092
21
49.991445209371904
0
LINE
8
0
6
CONTINUOUS
62
7
10
53.754528426012087
20
55.689930209371909
11
59.453013426012092
21
49.991445209371904
0
LINE
8
0
6
CONTINUOUS
62
7
10
45.453013426012092
20
55.689930209371909
11
53.754528426012087
21
55.689930209371909
0
LINE
8
0
6
CONTINUOUS
62
7
10
26.453013426012092
20
59.689930209371909
11
26.453013426012092
21
61.778242209371911
0
LINE
8
0
6
CONTINUOUS
62
7
10
26.453013426012092
20
59.689930209371909
11
41.453013426012092
21
59.689930209371909
0
LINE
8
0
6
CONTINUOUS
62
7
10
41.453013426012092
20
59.689930209371909
11
41.453013426012092
21
67.991445209371904
0
LINE
8
0
6
CONTINUOUS
62
7
10
35.754528426012087
20
73.689930209371909
11
41.453013426012092
21
67.991445209371904
0
LINE
8
0
6
CONTINUOUS
62
7
10
35.411382426012096
20
73.689930209371909
11
35.754528426012087
21
73.689930209371909
0
LINE
8
0
6
CONTINUOUS
62
7
10
24.976354426012108
20
63.254901209371909
11
35.411382426012096
21
73.689930209371909
0
LINE
8
0
6
CONTINUOUS
62
7
10
24.976354426012108
20
63.254901209371909
11
26.453013426012092
21
61.778242209371911
0
LINE
8
0
6
CONTINUOUS
62
7
10
79.453013426012149
20
40.689930209371909
11
79.453013426012149
21
55.689930209371909
0
LINE
8
0
6
CONTINUOUS
62
7
10
71.151498426012097
20
55.689930209371909
11
79.453013426012149
21
55.689930209371909
0
LINE
8
0
6
CONTINUOUS
62
7
10
65.453013426012092
20
49.991445209371904
11
71.151498426012097
21
55.689930209371909
0
LINE
8
0
6
CONTINUOUS
62
7
10
65.453013426012092
20
49.648300209371911
11
65.453013426012092
21
49.991445209371904
0
LINE
8
0
6
CONTINUOUS
62
7
10
65.453013426012092
20
49.648300209371911
11
75.888042426012134
21
39.213271209371911
0
LINE
8
0
6
CONTINUOUS
62
7
10
75.888042426012134
20
39.213271209371911
11
77.364701426012061
21
40.689930209371909
0
LINE
8
0
6
CONTINUOUS
62
7
10
77.364701426012061
20
40.689930209371909
11
79.453013426012149
21
40.689930209371909
0
LINE
8
0
6
CONTINUOUS
62
7
10
98.453013426012035
20
61.778242209371911
11
99.929672426012075
21
63.254901209371909
0
LINE
8
0
6
CONTINUOUS
62
7
10
89.494644426012087
20
73.689930209371909
11
99.929672426012075
21
63.254901209371909
0
LINE
8
0
6
CONTINUOUS
62
7
10
89.15149842601204
20
73.689930209371909
11
89.494644426012087
21
73.689930209371909
0
LINE
8
0
6
CONTINUOUS
62
7
10
83.453013426012035
20
67.991445209371904
11
89.15149842601204
21
73.689930209371909
0
LINE
8
0
6
CONTINUOUS
62
7
10
83.453013426012035
20
59.689930209371909
11
83.453013426012035
21
67.991445209371904
0
LINE
8
0
6
CONTINUOUS
62
7
10
83.453013426012035
20
59.689930209371909
11
98.453013426012035
21
59.689930209371909
0
LINE
8
0
6
CONTINUOUS
62
7
10
98.453013426012035
20
59.689930209371909
11
98.453013426012035
21
61.778242209371911
0
LINE
8
0
6
CONTINUOUS
62
7
10
83.453013426012035
20
93.689930209371909
11
98.453013426012035
21
93.689930209371909
0
LINE
8
0
6
CONTINUOUS
62
7
10
83.453013426012035
20
85.388415209371914
11
83.453013426012035
21
93.689930209371909
0
LINE
8
0
6
CONTINUOUS
62
7
10
83.453013426012035
20
85.388415209371914
11
89.15149842601204
21
79.689930209371909
0
LINE
8
0
6
CONTINUOUS
62
7
10
89.15149842601204
20
79.689930209371909
11
89.494644426012087
21
79.689930209371909
0
LINE
8
0
6
CONTINUOUS
62
7
10
89.494644426012087
20
79.689930209371909
11
99.929672426012075
21
90.124959209371895
0
LINE
8
0
6
CONTINUOUS
62
7
10
98.453013426012035
20
91.601618209371907
11
99.929672426012075
21
90.124959209371895
0
LINE
8
0
6
CONTINUOUS
62
7
10
98.453013426012035
20
91.601618209371907
11
98.453013426012035
21
93.689930209371909
0
LINE
8
0
6
CONTINUOUS
62
7
10
59.453013426012092
20
55.648300209371911
11
59.453013426012092
21
73.689930209371909
0
LINE
8
0
6
CONTINUOUS
62
7
10
41.411382426012096
20
73.689930209371909
11
59.453013426012092
21
73.689930209371909
0
LINE
8
0
6
CONTINUOUS
62
7
10
41.411382426012096
20
73.689930209371909
11
45.453013426012092
21
69.648300209371911
0
LINE
8
0
6
CONTINUOUS
62
7
10
45.453013426012092
20
59.689930209371909
11
45.453013426012092
21
69.648300209371911
0
LINE
8
0
6
CONTINUOUS
62
7
10
45.453013426012092
20
59.689930209371909
11
55.411382426012096
21
59.689930209371909
0
LINE
8
0
6
CONTINUOUS
62
7
10
55.411382426012096
20
59.689930209371909
11
59.453013426012092
21
55.648300209371911
0
LINE
8
0
6
CONTINUOUS
62
7
10
41.453013426012092
20
97.689930209371909
11
41.453013426012092
21
112.68993020937191
0
LINE
8
0
6
CONTINUOUS
62
7
10
28.574333426012117
20
112.68993020937191
11
41.453013426012092
21
112.68993020937191
0
LINE
8
0
6
CONTINUOUS
62
7
10
26.453013426012092
20
110.56861020937191
11
28.574333426012117
21
112.68993020937191
0
LINE
8
0
6
CONTINUOUS
62
7
10
26.453013426012092
20
97.689930209371909
11
26.453013426012092
21
110.56861020937191
0
LINE
8
0
6
CONTINUOUS
62
7
10
26.453013426012092
20
97.689930209371909
11
41.453013426012092
21
97.689930209371909
0
LINE
8
0
6
CONTINUOUS
62
7
10
75.888042426012134
20
114.16659020937192
11
77.364701426012061
21
112.68993020937191
0
LINE
8
0
6
CONTINUOUS
62
7
10
65.453013426012092
20
103.7315612093719
11
75.888042426012134
21
114.16659020937192
0
LINE
8
0
6
CONTINUOUS
62
7
10
65.453013426012092
20
103.38841520937191
11
65.453013426012092
21
103.7315612093719
0
LINE
8
0
6
CONTINUOUS
62
7
10
65.453013426012092
20
103.38841520937191
11
71.151498426012097
21
97.689930209371909
0
LINE
8
0
6
CONTINUOUS
62
7
10
71.151498426012097
20
97.689930209371909
11
79.453013426012149
21
97.689930209371909
0
LINE
8
0
6
CONTINUOUS
62
7
10
79.453013426012149
20
97.689930209371909
11
79.453013426012149
21
112.68993020937191
0
LINE
8
0
6
CONTINUOUS
62
7
10
77.364701426012061
20
112.68993020937191
11
79.453013426012149
21
112.68993020937191
0
LINE
8
0
6
CONTINUOUS
62
7
10
98.453013426012035
20
42.811250209371906
11
98.453013426012035
21
55.689930209371909
0
LINE
8
0
6
CONTINUOUS
62
7
10
83.453013426012035
20
55.689930209371909
11
98.453013426012035
21
55.689930209371909
0
LINE
8
0
6
CONTINUOUS
62
7
10
83.453013426012035
20
40.689930209371909
11
83.453013426012035
21
55.689930209371909
0
LINE
8
0
6
CONTINUOUS
62
7
10
83.453013426012035
20
40.689930209371909
11
96.331693426012066
21
40.689930209371909
0
LINE
8
0
6
CONTINUOUS
62
7
10
96.331693426012066
20
40.689930209371909
11
98.453013426012035
21
42.811250209371906
0
LINE
8
0
6
CONTINUOUS
62
7
10
13.041325426012122
20
75.189930209371909
11
22.147927426012075
21
66.083328209371899
0
LINE
8
0
6
CONTINUOUS
62
7
10
22.147927426012075
20
66.083328209371899
11
32.754528426012087
21
76.689930209371909
0
LINE
8
0
6
CONTINUOUS
62
7
10
22.147927426012075
20
87.296532209371918
11
32.754528426012087
21
76.689930209371909
0
LINE
8
0
6
CONTINUOUS
62
7
10
13.041325426012122
20
78.189930209371909
11
22.147927426012075
21
87.296532209371918
0
LINE
8
0
6
CONTINUOUS
62
7
10
13.041325426012122
20
75.189930209371909
11
13.041325426012122
21
78.189930209371909
0
LINE
8
0
6
CONTINUOUS
62
7
10
65.453013426012092
20
55.648300209371911
11
69.494644426012087
21
59.689930209371909
0
LINE
8
0
6
CONTINUOUS
62
7
10
69.494644426012087
20
59.689930209371909
11
79.453013426012149
21
59.689930209371909
0
LINE
8
0
6
CONTINUOUS
62
7
10
79.453013426012149
20
59.689930209371909
11
79.453013426012149
21
69.648300209371911
0
LINE
8
0
6
CONTINUOUS
62
7
10
79.453013426012149
20
69.648300209371911
11
83.494644426012087
21
73.689930209371909
0
LINE
8
0
6
CONTINUOUS
62
7
10
65.453013426012092
20
73.689930209371909
11
83.494644426012087
21
73.689930209371909
0
LINE
8
0
6
CONTINUOUS
62
7
10
65.453013426012092
20
55.648300209371911
11
65.453013426012092
21
73.689930209371909
0
LINE
8
0
6
CONTINUOUS
62
7
10
79.453013426012149
20
83.731561209371904
11
79.453013426012149
21
93.689930209371909
0
LINE
8
0
6
CONTINUOUS
62
7
10
69.494644426012087
20
93.689930209371909
11
79.453013426012149
21
93.689930209371909
0
LINE
8
0
6
CONTINUOUS
62
7
10
65.453013426012092
20
97.731561209371904
11
69.494644426012087
21
93.689930209371909
0
LINE
8
0
6
CONTINUOUS
62
7
10
65.453013426012092
20
79.689930209371909
11
65.453013426012092
21
97.731561209371904
0
LINE
8
0
6
CONTINUOUS
62
7
10
65.453013426012092
20
79.689930209371909
11
83.494644426012087
21
79.689930209371909
0
LINE
8
0
6
CONTINUOUS
62
7
10
79.453013426012149
20
83.731561209371904
11
83.494644426012087
21
79.689930209371909
0
LINE
8
0
6
CONTINUOUS
62
7
10
55.411382426012096
20
93.689930209371909
11
59.453013426012092
21
97.731561209371904
0
LINE
8
0
6
CONTINUOUS
62
7
10
45.453013426012092
20
93.689930209371909
11
55.411382426012096
21
93.689930209371909
0
LINE
8
0
6
CONTINUOUS
62
7
10
45.453013426012092
20
83.731561209371904
11
45.453013426012092
21
93.689930209371909
0
LINE
8
0
6
CONTINUOUS
62
7
10
41.411382426012096
20
79.689930209371909
11
45.453013426012092
21
83.731561209371904
0
LINE
8
0
6
CONTINUOUS
62
7
10
41.411382426012096
20
79.689930209371909
11
59.453013426012092
21
79.689930209371909
0
LINE
8
0
6
CONTINUOUS
62
7
10
59.453013426012092
20
79.689930209371909
11
59.453013426012092
21
97.731561209371904
0
LINE
8
0
6
CONTINUOUS
62
7
10
26.453013426012092
20
55.689930209371909
11
41.453013426012092
21
55.689930209371909
0
LINE
8
0
6
CONTINUOUS
62
7
10
26.453013426012092
20
42.811250209371906
11
26.453013426012092
21
55.689930209371909
0
LINE
8
0
6
CONTINUOUS
62
7
10
26.453013426012092
20
42.811250209371906
11
28.574333426012117
21
40.689930209371909
0
LINE
8
0
6
CONTINUOUS
62
7
10
28.574333426012117
20
40.689930209371909
11
41.453013426012092
21
40.689930209371909
0
LINE
8
0
6
CONTINUOUS
62
7
10
41.453013426012092
20
40.689930209371909
11
41.453013426012092
21
55.689930209371909
0
LINE
8
0
6
CONTINUOUS
62
7
10
83.453013426012035
20
112.68993020937191
11
96.331693426012066
21
112.68993020937191
0
LINE
8
0
6
CONTINUOUS
62
7
10
83.453013426012035
20
97.689930209371909
11
83.453013426012035
21
112.68993020937191
0
LINE
8
0
6
CONTINUOUS
62
7
10
83.453013426012035
20
97.689930209371909
11
98.453013426012035
21
97.689930209371909
0
LINE
8
0
6
CONTINUOUS
62
7
10
98.453013426012035
20
97.689930209371909
11
98.453013426012035
21
110.56861020937191
0
LINE
8
0
6
CONTINUOUS
62
7
10
96.331693426012066
20
112.68993020937191
11
98.453013426012035
21
110.56861020937191
0
LINE
8
0
6
CONTINUOUS
62
7
10
63.953013426012092
20
126.10161820937191
11
73.059615426012101
21
116.99501720937189
0
LINE
8
0
6
CONTINUOUS
62
7
10
60.953013426012092
20
126.10161820937191
11
63.953013426012092
21
126.10161820937191
0
LINE
8
0
6
CONTINUOUS
62
7
10
51.846411426012082
20
116.99501720937189
11
60.953013426012092
21
126.10161820937191
0
LINE
8
0
6
CONTINUOUS
62
7
10
51.846411426012082
20
116.99501720937189
11
62.453013426012092
21
106.38841520937191
0
LINE
8
0
6
CONTINUOUS
62
7
10
62.453013426012092
20
106.38841520937191
11
73.059615426012101
21
116.99501720937189
0
LINE
8
0
6
CONTINUOUS
62
7
10
92.15149842601204
20
76.689930209371909
11
102.75810042601211
21
66.083328209371899
0
LINE
8
0
6
CONTINUOUS
62
7
10
102.75810042601211
20
66.083328209371899
11
111.86470142601206
21
75.189930209371909
0
LINE
8
0
6
CONTINUOUS
62
7
10
111.86470142601206
20
75.189930209371909
11
111.86470142601206
21
78.189930209371909
0
LINE
8
0
6
CONTINUOUS
62
7
10
102.75810042601211
20
87.296532209371918
11
111.86470142601206
21
78.189930209371909
0
LINE
8
0
6
CONTINUOUS
62
7
10
92.15149842601204
20
76.689930209371909
11
102.75810042601211
21
87.296532209371918
0
LINE
8
0
6
CONTINUOUS
62
7
10
8.437755843286368
20
103.87858370478723
11
23.632668843968531
21
119.07349770410502
0
LINE
8
0
6
CONTINUOUS
62
7
10
8.437755843286368
20
103.87858370478723
11
8.4377558433576496
21
105.46689570478723
0
LINE
8
0
6
CONTINUOUS
62
7
10
38.136240845710745
20
157.87858370345387
11
8.4377558457107398
21
157.87858370478722
0
LINE
8
0
6
CONTINUOUS
62
7
10
47.242841845301882
20
148.77198170304501
11
38.136240845710745
21
157.87858370345387
0
LINE
8
0
6
CONTINUOUS
62
7
10
47.242841845301882
20
148.77198170304501
11
56.349443845710766
21
157.87858370263615
0
LINE
8
0
6
CONTINUOUS
62
7
10
58.93775584571074
20
157.87858370251996
11
56.349443845710766
21
157.87858370263615
0
LINE
8
0
6
CONTINUOUS
62
7
10
58.93775584571074
20
157.87858370251996
11
58.937755845845459
21
160.87858370251996
0
LINE
8
0
6
CONTINUOUS
62
7
10
58.937755845845459
20
160.87858370251996
11
56.349443845845428
21
160.87858370263615
0
LINE
8
0
6
CONTINUOUS
62
7
10
56.349443845845428
20
160.87858370263615
11
47.242841846254237
21
169.98518570304503
0
LINE
8
0
6
CONTINUOUS
62
7
10
38.136240845845464
20
160.87858370345387
11
47.242841846254237
21
169.98518570304503
0
LINE
8
0
6
CONTINUOUS
62
7
10
38.136240845845464
20
160.87858370345387
11
8.4377558458454587
21
160.87858370478722
0
LINE
8
0
6
CONTINUOUS
62
7
10
8.4377558462738307
20
171.38021470478722
11
8.4377558471787779
21
190.57706870478722
0
LINE
8
0
6
CONTINUOUS
62
7
10
8.4377558471787779
20
190.57706870478722
11
17.544357847587662
21
199.68367070437836
0
LINE
8
0
6
CONTINUOUS
62
7
10
17.544357847587662
20
199.68367070437836
11
8.4377558479965273
21
208.79027170478719
0
LINE
8
0
6
CONTINUOUS
62
7
10
8.4377558479965273
20
208.79027170478719
11
8.4377558480638299
21
210.29027170478719
0
LINE
8
0
6
CONTINUOUS
62
7
10
8.4377558480638299
20
210.29027170478719
11
6.9377558480638299
21
210.29027170485455
0
LINE
8
0
6
CONTINUOUS
62
7
10
6.9377558480638299
20
210.29027170485455
11
6.9377558481985488
21
213.29027170485455
0
LINE
8
0
6
CONTINUOUS
62
7
10
8.4377558481985488
20
213.29027170478719
11
6.9377558481985488
21
213.29027170485455
0
LINE
8
0
6
CONTINUOUS
62
7
10
8.4377558481985488
20
213.29027170478719
11
8.4377558482698305
21
214.87858370478722
0
LINE
8
0
6
CONTINUOUS
62
7
10
23.632668847587638
20
199.683670704105
11
8.4377558482698305
21
214.87858370478722
0
LINE
8
0
6
CONTINUOUS
62
7
10
45.121521847587587
20
199.68367070314019
11
23.632668847587638
21
199.683670704105
0
LINE
8
0
6
CONTINUOUS
62
7
10
47.2428418474924
20
197.56234970304502
11
45.121521847587587
21
199.68367070314019
0
LINE
8
0
6
CONTINUOUS
62
7
10
47.242841846527654
20
176.07349770304498
11
47.2428418474924
21
197.56234970304502
0
LINE
8
0
6
CONTINUOUS
62
7
10
62.437755845845459
20
160.87858370236279
11
47.242841846527654
21
176.07349770304498
0
LINE
8
0
6
CONTINUOUS
62
7
10
62.43775584571074
20
157.87858370236279
11
62.437755845845459
21
160.87858370236279
0
LINE
8
0
6
CONTINUOUS
62
7
10
47.242841845028522
20
142.68367070304501
11
62.43775584571074
21
157.87858370236279
0
LINE
8
0
6
CONTINUOUS
62
7
10
47.242841844063719
20
121.194817703045
11
47.242841845028522
21
142.68367070304501
0
LINE
8
0
6
CONTINUOUS
62
7
10
45.12152184396848
20
119.07349770314025
11
47.242841844063719
21
121.194817703045
0
LINE
8
0
6
CONTINUOUS
62
7
10
45.12152184396848
20
119.07349770314025
11
23.632668843968531
21
119.07349770410502
0
LINE
8
0
6
CONTINUOUS
62
7
10
8.4377558433576496
20
105.46689570478723
11
6.9377558433576496
21
105.46689570485456
0
LINE
8
0
6
CONTINUOUS
62
7
10
6.9377558433576496
20
105.46689570485456
11
6.9377558434923685
21
108.46689570485456
0
LINE
8
0
6
CONTINUOUS
62
7
10
8.4377558434923685
20
108.46689570478723
11
6.9377558434923685
21
108.46689570485456
0
LINE
8
0
6
CONTINUOUS
62
7
10
8.4377558434923685
20
108.46689570478723
11
8.4377558435596711
21
109.96689570478723
0
LINE
8
0
6
CONTINUOUS
62
7
10
8.4377558435596711
20
109.96689570478723
11
17.544357843968555
21
119.07349770437837
0
LINE
8
0
6
CONTINUOUS
62
7
10
17.544357843968555
20
119.07349770437837
11
8.4377558443774205
21
128.18009870478721
0
LINE
8
0
6
CONTINUOUS
62
7
10
8.4377558443774205
20
128.18009870478721
11
8.4377558452823678
21
147.37695270478721
0
LINE
8
0
6
CONTINUOUS
62
7
10
20.37278484409552
20
121.90192470425139
11
21.849443844161783
21
123.37858370418509
0
LINE
8
0
6
CONTINUOUS
62
7
10
23.937755844161757
20
123.37858370409133
11
21.849443844161783
21
123.37858370418509
0
LINE
8
0
6
CONTINUOUS
62
7
10
23.937755844161757
20
123.37858370409133
11
23.937755844835237
21
138.37858370409134
0
LINE
8
0
6
CONTINUOUS
62
7
10
23.937755844835237
20
138.37858370409134
11
15.636240844835243
21
138.37858370446403
0
LINE
8
0
6
CONTINUOUS
62
7
10
9.9377558445794421
20
132.68009870471988
11
15.636240844835243
21
138.37858370446403
0
LINE
8
0
6
CONTINUOUS
62
7
10
9.9377558445639806
20
132.33695270471986
11
9.9377558445794421
21
132.68009870471988
0
LINE
8
0
6
CONTINUOUS
62
7
10
20.37278484409552
20
121.90192470425139
11
9.9377558445639806
21
132.33695270471986
0
LINE
8
0
6
CONTINUOUS
62
7
10
23.937755845014863
20
142.37858370409134
11
13.979385845014804
21
142.37858370453841
0
LINE
8
0
6
CONTINUOUS
62
7
10
23.937755845014863
20
142.37858370409134
11
23.937755845461936
21
152.33695270409132
0
LINE
8
0
6
CONTINUOUS
62
7
10
23.937755845461936
20
152.33695270409132
11
27.979385845643378
21
156.37858370390987
0
LINE
8
0
6
CONTINUOUS
62
7
10
27.979385845643378
20
156.37858370390987
11
9.9377558456434372
21
156.37858370471989
0
LINE
8
0
6
CONTINUOUS
62
7
10
9.9377558448334185
20
138.33695270471986
11
9.9377558456434372
21
156.37858370471989
0
LINE
8
0
6
CONTINUOUS
62
7
10
9.9377558448334185
20
138.33695270471986
11
13.979385845014804
21
142.37858370453841
0
LINE
8
0
6
CONTINUOUS
62
7
10
27.979385845912816
20
162.37858370390987
11
23.937755846094205
21
166.42021470409134
0
LINE
8
0
6
CONTINUOUS
62
7
10
23.937755846094205
20
166.42021470409134
11
23.937755846541336
21
176.37858370409131
0
LINE
8
0
6
CONTINUOUS
62
7
10
23.937755846541336
20
176.37858370409131
11
13.979385846541277
21
176.37858370453844
0
LINE
8
0
6
CONTINUOUS
62
7
10
13.979385846541277
20
176.37858370453844
11
9.93775584672278
21
180.42021470471985
0
LINE
8
0
6
CONTINUOUS
62
7
10
9.9377558459127613
20
162.37858370471989
11
9.93775584672278
21
180.42021470471985
0
LINE
8
0
6
CONTINUOUS
62
7
10
27.979385845912816
20
162.37858370390987
11
9.9377558459127613
21
162.37858370471989
0
LINE
8
0
6
CONTINUOUS
62
7
10
23.937755846720904
20
180.37858370409134
11
15.636240846720909
21
180.37858370446401
0
LINE
8
0
6
CONTINUOUS
62
7
10
23.937755846720904
20
180.37858370409134
11
23.937755847394328
21
195.37858370409134
0
LINE
8
0
6
CONTINUOUS
62
7
10
23.937755847394328
20
195.37858370409134
11
21.849443847394355
21
195.37858370418508
0
LINE
8
0
6
CONTINUOUS
62
7
10
21.849443847394355
20
195.37858370418508
11
20.372784847460707
21
196.85524270425134
0
LINE
8
0
6
CONTINUOUS
62
7
10
9.937755846992161
20
186.42021470471985
11
20.372784847460707
21
196.85524270425134
0
LINE
8
0
6
CONTINUOUS
62
7
10
9.9377558469767564
20
186.07706870471986
11
9.937755846992161
21
186.42021470471985
0
LINE
8
0
6
CONTINUOUS
62
7
10
15.636240846720909
20
180.37858370446401
11
9.9377558469767564
21
186.07706870471986
0
LINE
8
0
6
CONTINUOUS
62
7
10
42.937755845014863
20
142.37858370323829
11
42.937755845108597
21
144.46689570323829
0
LINE
8
0
6
CONTINUOUS
62
7
10
42.937755845108597
20
144.46689570323829
11
44.414414845174861
21
145.943554703172
0
LINE
8
0
6
CONTINUOUS
62
7
10
44.414414845174861
20
145.943554703172
11
33.979385845643378
21
156.37858370364049
0
LINE
8
0
6
CONTINUOUS
62
7
10
33.979385845643378
20
156.37858370364049
11
33.636240845643442
21
156.37858370365592
0
LINE
8
0
6
CONTINUOUS
62
7
10
27.937755845387528
20
150.68009870391174
11
33.636240845643442
21
156.37858370365592
0
LINE
8
0
6
CONTINUOUS
62
7
10
27.937755845014863
20
142.37858370391174
11
27.937755845387528
21
150.68009870391174
0
LINE
8
0
6
CONTINUOUS
62
7
10
42.937755845014863
20
142.37858370323829
11
27.937755845014863
21
142.37858370391174
0
LINE
8
0
6
CONTINUOUS
62
7
10
44.414414846381305
20
172.81361270317197
11
42.937755846447544
21
174.29027170323829
0
LINE
8
0
6
CONTINUOUS
62
7
10
42.937755846447544
20
174.29027170323829
11
42.937755846541336
21
176.37858370323832
0
LINE
8
0
6
CONTINUOUS
62
7
10
42.937755846541336
20
176.37858370323832
11
27.937755846541336
21
176.37858370391174
0
LINE
8
0
6
CONTINUOUS
62
7
10
27.937755846168614
20
168.07706870391172
11
27.937755846541336
21
176.37858370391174
0
LINE
8
0
6
CONTINUOUS
62
7
10
33.636240845912766
20
162.37858370365592
11
27.937755846168614
21
168.07706870391172
0
LINE
8
0
6
CONTINUOUS
62
7
10
33.979385845912816
20
162.37858370364049
11
33.636240845912766
21
162.37858370365592
0
LINE
8
0
6
CONTINUOUS
62
7
10
33.979385845912816
20
162.37858370364049
11
44.414414846381305
21
172.81361270317197
0
LINE
8
0
6
CONTINUOUS
62
7
10
42.937755846720904
20
180.37858370323829
11
27.937755846720904
21
180.37858370391172
0
LINE
8
0
6
CONTINUOUS
62
7
10
42.937755846720904
20
180.37858370323829
11
42.937755847299115
21
193.25726370323827
0
LINE
8
0
6
CONTINUOUS
62
7
10
42.937755847299115
20
193.25726370323827
11
40.816435847394359
21
195.3785837033335
0
LINE
8
0
6
CONTINUOUS
62
7
10
40.816435847394359
20
195.3785837033335
11
27.937755847394328
21
195.37858370391172
0
LINE
8
0
6
CONTINUOUS
62
7
10
27.937755846720904
20
180.37858370391172
11
27.937755847394328
21
195.37858370391172
0
LINE
8
0
6
CONTINUOUS
62
7
10
40.816435844161788
20
123.37858370333353
11
27.937755844161757
21
123.37858370391174
0
LINE
8
0
6
CONTINUOUS
62
7
10
40.816435844161788
20
123.37858370333353
11
42.937755844257026
21
125.49990370323829
0
LINE
8
0
6
CONTINUOUS
62
7
10
42.937755844257026
20
125.49990370323829
11
42.937755844835237
21
138.37858370323829
0
LINE
8
0
6
CONTINUOUS
62
7
10
42.937755844835237
20
138.37858370323829
11
27.937755844835237
21
138.37858370391174
0
LINE
8
0
6
CONTINUOUS
62
7
10
27.937755844161757
20
123.37858370391174
11
27.937755844835237
21
138.37858370391174
0
LINE
8
0
6
CONTINUOUS
62
7
10
8.4377558460492992
20
166.38021470478722
11
5.4377558460492992
21
166.38021470492194
0
LINE
8
0
6
CONTINUOUS
62
7
10
5.4377558460492992
20
166.38021470492194
11
5.4377558462738307
21
171.38021470492194
0
LINE
8
0
6
CONTINUOUS
62
7
10
8.4377558462738307
20
171.38021470478722
11
5.4377558462738307
21
171.38021470492194
0
LINE
8
0
6
CONTINUOUS
62
7
10
8.4377558452823678
20
147.37695270478721
11
5.4377558452823678
21
147.37695270492191
0
LINE
8
0
6
CONTINUOUS
62
7
10
5.4377558452823678
20
147.37695270492191
11
5.4377558455067856
21
152.37695270492191
0
LINE
8
0
6
CONTINUOUS
62
7
10
8.4377558455067856
20
152.37695270478721
11
5.4377558455067856
21
152.37695270492191
0
LINE
8
Layer_1
6
CONTINUOUS
62
7
10
8.4377558460492992
20
166.38021470478722
11
8.4377558458454587
21
160.87858370478722
0
LINE
8
Layer_1
6
CONTINUOUS
62
7
10
8.4377558457107398
20
157.87858370478722
11
8.4377558455067856
21
152.37695270478721
0
LINE
8
0
6
CONTINUOUS
62
7
10
104.46860201479376
20
123.3246827079829
11
102.38029001479379
21
123.32468270807666
0
LINE
8
0
6
CONTINUOUS
62
7
10
110.68180501735287
20
180.32468270770394
11
102.38029001735288
21
180.32468270807666
0
LINE
8
0
6
CONTINUOUS
62
7
10
110.68180501735287
20
180.32468270770394
11
116.38029001760867
21
186.02316770744812
0
LINE
8
0
6
CONTINUOUS
62
7
10
116.38029001760867
20
186.02316770744812
11
116.38029001762413
21
186.36631370744811
0
LINE
8
0
6
CONTINUOUS
62
7
10
116.38029001762413
20
186.36631370744811
11
105.94526101809254
21
196.80134170791658
0
LINE
8
0
6
CONTINUOUS
62
7
10
104.46860201802633
20
195.3246827079829
11
105.94526101809254
21
196.80134170791658
0
LINE
8
0
6
CONTINUOUS
62
7
10
104.46860201802633
20
195.3246827079829
11
102.38029001802636
21
195.32468270807666
0
LINE
8
0
6
CONTINUOUS
62
7
10
102.38029001735288
20
180.32468270807666
11
102.38029001802636
21
195.32468270807666
0
LINE
8
0
6
CONTINUOUS
62
7
10
98.380290015467267
20
138.32468270825626
11
83.380290015467267
21
138.32468270892969
0
LINE
8
0
6
CONTINUOUS
62
7
10
83.380290014889056
20
125.44600270892968
11
83.380290015467267
21
138.32468270892969
0
LINE
8
0
6
CONTINUOUS
62
7
10
85.501610014793755
20
123.32468270883444
11
83.380290014889056
21
125.44600270892968
0
LINE
8
0
6
CONTINUOUS
62
7
10
98.380290014793786
20
123.32468270825626
11
85.501610014793755
21
123.32468270883444
0
LINE
8
0
6
CONTINUOUS
62
7
10
98.380290014793786
20
123.32468270825626
11
98.380290015467267
21
138.32468270825626
0
LINE
8
0
6
CONTINUOUS
62
7
10
116.38029001654479
20
162.32468270744812
11
116.38029001735481
21
180.36631370744811
0
LINE
8
0
6
CONTINUOUS
62
7
10
112.3386590171732
20
176.32468270762956
11
116.38029001735481
21
180.36631370744811
0
LINE
8
0
6
CONTINUOUS
62
7
10
112.3386590171732
20
176.32468270762956
11
102.38029001717325
21
176.32468270807666
0
LINE
8
0
6
CONTINUOUS
62
7
10
102.38029001672624
20
166.36631370807666
11
102.38029001717325
21
176.32468270807666
0
LINE
8
0
6
CONTINUOUS
62
7
10
83.380290017931088
20
193.20336270892969
11
85.501610018026327
21
195.32468270883444
0
LINE
8
0
6
CONTINUOUS
62
7
10
98.338659016544739
20
162.32468270825811
11
102.38029001672624
21
166.36631370807666
0
LINE
8
0
6
CONTINUOUS
62
7
10
112.33865901564673
20
142.32468270762956
11
102.38029001564678
21
142.32468270807666
0
LINE
8
0
6
CONTINUOUS
62
7
10
116.38029001654479
20
162.32468270744812
11
98.338659016544739
21
162.32468270825811
0
LINE
8
0
6
CONTINUOUS
62
7
10
105.94526101472741
20
121.84802370791661
11
116.38029001519601
21
132.28305170744812
0
LINE
8
0
6
CONTINUOUS
62
7
10
116.38029001519601
20
132.28305170744812
11
116.38029001521136
21
132.62619770744811
0
LINE
8
0
6
CONTINUOUS
62
7
10
98.380290017352877
20
180.32468270825626
11
98.380290018026358
21
195.32468270825626
0
LINE
8
0
6
CONTINUOUS
62
7
10
116.38029001521136
20
132.62619770744811
11
110.68180501546726
21
138.32468270770394
0
LINE
8
0
6
CONTINUOUS
62
7
10
110.68180501546726
20
138.32468270770394
11
102.38029001546727
21
138.32468270807666
0
LINE
8
0
6
CONTINUOUS
62
7
10
102.38029001479379
20
123.32468270807666
11
102.38029001546727
21
138.32468270807666
0
LINE
8
0
6
CONTINUOUS
62
7
10
116.38029001627535
20
156.32468270744812
11
98.338659016275301
21
156.32468270825811
0
LINE
8
0
6
CONTINUOUS
62
7
10
117.88029001419159
20
109.91299470738076
11
108.77368801460045
21
119.01959670778962
0
LINE
8
0
6
CONTINUOUS
62
7
10
117.88029001412428
20
108.41299470738076
11
117.88029001419159
21
109.91299470738076
0
LINE
8
0
6
CONTINUOUS
62
7
10
119.38029001412428
20
108.41299470731343
11
117.88029001412428
21
108.41299470738076
0
LINE
8
0
6
CONTINUOUS
62
7
10
119.38029001398957
20
105.41299470731343
11
119.38029001412428
21
108.41299470731343
0
LINE
8
0
6
CONTINUOUS
62
7
10
119.38029001398957
20
105.41299470731343
11
117.88029001398957
21
105.41299470738076
0
LINE
8
0
6
CONTINUOUS
62
7
10
117.88029001391828
20
103.82468270738076
11
117.88029001398957
21
105.41299470738076
0
LINE
8
0
6
CONTINUOUS
62
7
10
117.88029001391828
20
103.82468270738076
11
102.68537601460048
21
119.01959670806295
0
LINE
8
0
6
CONTINUOUS
62
7
10
98.380290015646779
20
142.32468270825626
11
98.380290016019558
21
150.62619770825626
0
LINE
8
0
6
CONTINUOUS
62
7
10
102.68537601460048
20
119.01959670806295
11
81.196524014600413
21
119.01959670902772
0
LINE
8
0
6
CONTINUOUS
62
7
10
81.196524014600413
20
119.01959670902772
11
79.075203014695717
21
121.14091670912299
0
LINE
8
0
6
CONTINUOUS
62
7
10
116.38029001546533
20
138.28305170744812
11
112.33865901564673
21
142.32468270762956
0
LINE
8
0
6
CONTINUOUS
62
7
10
79.075203014695717
20
121.14091670912299
11
79.075203015660463
21
142.629769709123
0
LINE
8
0
6
CONTINUOUS
62
7
10
79.075203015660463
20
142.629769709123
11
63.880290016342713
21
157.82468270980519
0
LINE
8
0
6
CONTINUOUS
62
7
10
63.880290016342713
20
157.82468270980519
11
63.880290016477375
21
160.82468270980519
0
LINE
8
0
6
CONTINUOUS
62
7
10
63.880290016477375
20
160.82468270980519
11
79.075203017159538
21
176.01959670912296
0
LINE
8
0
6
CONTINUOUS
62
7
10
98.380290015646779
20
142.32468270825626
11
83.380290015646779
21
142.32468270892969
0
LINE
8
0
6
CONTINUOUS
62
7
10
79.075203017159538
20
176.01959670912296
11
79.075203018124398
21
197.50844870912297
0
LINE
8
0
6
CONTINUOUS
62
7
10
79.075203018124398
20
197.50844870912297
11
81.19652401821952
21
199.62976970902773
0
LINE
8
0
6
CONTINUOUS
62
7
10
102.68537601821959
20
199.62976970806295
11
81.19652401821952
21
199.62976970902773
0
LINE
8
0
6
CONTINUOUS
62
7
10
83.380290015646779
20
142.32468270892969
11
83.38029001574057
21
144.41299470892969
0
LINE
8
0
6
CONTINUOUS
62
7
10
102.68537601821959
20
199.62976970806295
11
117.88029001890186
21
214.82468270738076
0
LINE
8
0
6
CONTINUOUS
62
7
10
98.380290017352877
20
180.32468270825626
11
83.380290017352877
21
180.32468270892969
0
LINE
8
0
6
CONTINUOUS
62
7
10
117.88029001883046
20
213.23637070738076
11
117.88029001890186
21
214.82468270738076
0
LINE
8
0
6
CONTINUOUS
62
7
10
119.38029001883046
20
213.23637070731343
11
117.88029001883046
21
213.23637070738076
0
LINE
8
0
6
CONTINUOUS
62
7
10
119.38029001869586
20
210.23637070731343
11
119.38029001883046
21
213.23637070731343
0
LINE
8
0
6
CONTINUOUS
62
7
10
102.38029001564678
20
142.32468270807666
11
102.38029001609391
21
152.28305170807667
0
LINE
8
0
6
CONTINUOUS
62
7
10
119.38029001869586
20
210.23637070731343
11
117.88029001869586
21
210.23637070738076
0
LINE
8
0
6
CONTINUOUS
62
7
10
98.380290016019558
20
150.62619770825626
11
92.681805016275348
21
156.32468270851209
0
LINE
8
0
6
CONTINUOUS
62
7
10
117.88029001862844
20
208.73637070738076
11
117.88029001869586
21
210.23637070738076
0
LINE
8
0
6
CONTINUOUS
62
7
10
92.681805016275348
20
156.32468270851209
11
92.338659016275301
21
156.32468270852749
0
LINE
8
0
6
CONTINUOUS
62
7
10
108.77368801821956
20
199.62976970778962
11
117.88029001862844
21
208.73637070738076
0
LINE
8
0
6
CONTINUOUS
62
7
10
117.88029001781081
20
190.52316770738076
11
108.77368801821956
21
199.62976970778962
0
LINE
8
0
6
CONTINUOUS
62
7
10
83.38029001574057
20
144.41299470892969
11
81.903630015806812
21
145.88965370899601
0
LINE
8
0
6
CONTINUOUS
62
7
10
98.380290018026358
20
195.32468270825626
11
85.501610018026327
21
195.32468270883444
0
LINE
8
0
6
CONTINUOUS
62
7
10
92.338659016544739
20
162.32468270852749
11
81.903630017013256
21
172.75971170899598
0
LINE
8
0
6
CONTINUOUS
62
7
10
92.681805016544786
20
162.32468270851209
11
92.338659016544739
21
162.32468270852749
0
LINE
8
0
6
CONTINUOUS
62
7
10
92.681805016544786
20
162.32468270851209
11
98.380290016800586
21
168.02316770825624
0
LINE
8
0
6
CONTINUOUS
62
7
10
98.380290016800586
20
168.02316770825624
11
98.380290017173252
21
176.32468270825626
0
LINE
8
0
6
CONTINUOUS
62
7
10
98.380290017173252
20
176.32468270825626
11
83.380290017173252
21
176.32468270892969
0
LINE
8
0
6
CONTINUOUS
62
7
10
83.380290017079574
20
174.23637070892968
11
83.380290017173252
21
176.32468270892969
0
LINE
8
0
6
CONTINUOUS
62
7
10
81.903630017013256
20
172.75971170899598
11
83.380290017079574
21
174.23637070892968
0
LINE
8
0
6
CONTINUOUS
62
7
10
102.38029001609391
20
152.28305170807667
11
98.338659016275301
21
156.32468270825811
0
LINE
8
0
6
CONTINUOUS
62
7
10
105.94526101472741
20
121.84802370791661
11
104.46860201479376
21
123.3246827079829
0
LINE
8
0
6
CONTINUOUS
62
7
10
79.07520301593388
20
148.71808070912297
11
69.968602016342686
21
157.82468270953183
0
LINE
8
0
6
CONTINUOUS
62
7
10
79.07520301593388
20
148.71808070912297
11
88.181805016342651
21
157.82468270871414
0
LINE
8
0
6
CONTINUOUS
62
7
10
116.38029001546533
20
138.28305170744812
11
116.38029001627535
21
156.32468270744812
0
LINE
8
0
6
CONTINUOUS
62
7
10
117.88029001634266
20
157.82468270738076
11
88.181805016342651
21
157.82468270871414
0
LINE
8
0
6
CONTINUOUS
62
7
10
81.903630015806812
20
145.88965370899601
11
92.338659016275301
21
156.32468270852749
0
LINE
8
0
6
CONTINUOUS
62
7
10
108.77368801460045
20
119.01959670778962
11
117.88029001500934
21
128.12619770738075
0
LINE
8
0
6
CONTINUOUS
62
7
10
83.380290017352877
20
180.32468270892969
11
83.380290017931088
21
193.20336270892969
0
LINE
8
0
6
CONTINUOUS
62
7
10
69.968602016477348
20
160.82468270953183
11
79.075203016886235
21
169.93128470912299
0
LINE
8
0
6
CONTINUOUS
62
7
10
69.968602016477348
20
160.82468270953183
11
67.380290016477375
21
160.82468270964804
0
LINE
8
0
6
CONTINUOUS
62
7
10
67.380290016342713
20
157.82468270964804
11
67.380290016477375
21
160.82468270964804
0
LINE
8
0
6
CONTINUOUS
62
7
10
69.968602016342686
20
157.82468270953183
11
67.380290016342713
21
157.82468270964804
0
LINE
8
0
6
CONTINUOUS
62
7
10
117.88029001647737
20
160.82468270738076
11
88.181805016477369
21
160.82468270871414
0
LINE
8
0
6
CONTINUOUS
62
7
10
88.181805016477369
20
160.82468270871414
11
79.075203016886235
21
169.93128470912299
0
LINE
8
Layer_1
6
CONTINUOUS
62
7
10
117.88029001568987
20
142.32305170738076
11
117.88029001500934
21
128.12619770738075
0
LINE
8
0
6
CONTINUOUS
62
7
10
120.88029001591428
20
147.32305170724607
11
117.88029001591428
21
147.32305170738076
0
LINE
8
0
6
CONTINUOUS
62
7
10
120.88029001568987
20
142.32305170724607
11
120.88029001591428
21
147.32305170724607
0
LINE
8
0
6
CONTINUOUS
62
7
10
120.88029001568987
20
142.32305170724607
11
117.88029001568987
21
142.32305170738076
0
LINE
8
Layer_1
6
CONTINUOUS
62
7
10
117.88029001634266
20
157.82468270738076
11
117.88029001591428
21
147.32305170738076
0
LINE
8
0
6
CONTINUOUS
62
7
10
120.88029001690575
20
172.28631370724605
11
120.88029001713028
21
176.32631370724604
0
LINE
8
0
6
CONTINUOUS
62
7
10
120.88029001690575
20
171.32631370724604
11
120.88029001713028
21
176.32631370724604
0
LINE
8
0
6
CONTINUOUS
62
7
10
120.88029001690575
20
171.32631370724604
11
117.88029001690575
21
171.32631370738073
0
LINE
8
Layer_1
6
CONTINUOUS
62
7
10
117.88029001690575
20
171.32631370738073
11
117.88029001647737
21
160.82468270738076
0
LINE
8
0
6
CONTINUOUS
62
7
10
120.88029001690575
20
176.32631370724604
11
117.88029001690575
21
176.32631370738073
0
LINE
8
Layer_1
6
CONTINUOUS
62
7
10
117.88029001781081
20
190.52316770738076
11
117.88029001690575
21
176.32631370738073
0
POLYLINE
8
Layer_1
6
CONTINUOUS
62
1
66
1
10
0
20
0
70
128
40
0
41
0
0
VERTEX
8
Layer_1
6
CONTINUOUS
62
1
10
60.802151529557932
20
217.15359407595284
0
VERTEX
8
Layer_1
6
CONTINUOUS
62
1
10
60.909193380286808
20
217.08619735511687
0
VERTEX
8
Layer_1
6
CONTINUOUS
62
1
10
61.385835007856429
20
216.56890816775666
0
VERTEX
8
Layer_1
6
CONTINUOUS
62
1
10
61.660081046072577
20
216.30341753105725
0
VERTEX
8
Layer_1
6
CONTINUOUS
62
1
10
61.953930103971771
20
216.05695816962253
0
VERTEX
8
Layer_1
6
CONTINUOUS
62
1
10
62.264121834100649
20
215.84722656141079
0
VERTEX
8
Layer_1
6
CONTINUOUS
62
1
10
62.424327342672044
20
215.76166381412548
0
VERTEX
8
Layer_1
6
CONTINUOUS
62
1
10
62.587395889005847
20
215.69191918438028
0
VERTEX
8
Layer_1
6
CONTINUOUS
62
1
10
62.752919929670384
20
215.64020473191991
0
VERTEX
8
Layer_1
6
CONTINUOUS
62
1
10
62.920491921233975
20
215.60873251648917
0
VERTEX
8
Layer_1
6
CONTINUOUS
62
1
10
63.089704320264964
20
215.59971459783287
0
VERTEX
8
Layer_1
6
CONTINUOUS
62
1
10
63.260149583331668
20
215.61536303569574
0
VERTEX
8
Layer_1
6
CONTINUOUS
62
1
10
63.447325120390722
20
215.67532295042844
0
VERTEX
8
Layer_1
6
CONTINUOUS
62
1
10
63.620291490932637
20
215.78476475732182
0
VERTEX
8
Layer_1
6
CONTINUOUS
62
1
10
63.757891631817095
20
215.9324056060878
0
VERTEX
8
Layer_1
6
CONTINUOUS
62
1
10
63.806817783906425
20
216.017024780458
0
VERTEX
8
Layer_1
6
CONTINUOUS
62
1
10
63.83896847990377
20
216.10696264643829
0
VERTEX
8
Layer_1
6
CONTINUOUS
62
1
10
63.842989154749873
20
216.14987240981998
0
VERTEX
8
Layer_1
6
CONTINUOUS
62
1
10
63.827074940937337
20
216.19021741923029
0
SEQEND
0
POLYLINE
8
Layer_1
6
CONTINUOUS
62
1
66
1
10
0
20
0
70
128
40
0
41
0
0
VERTEX
8
Layer_1
6
CONTINUOUS
62
1
10
62.525065453841876
20
217.66721478219461
0
VERTEX
8
Layer_1
6
CONTINUOUS
62
1
10
62.279553608520814
20
217.77307001060592
0
VERTEX
8
Layer_1
6
CONTINUOUS
62
1
10
62.152283883647399
20
217.81540843981389
0
VERTEX
8
Layer_1
6
CONTINUOUS
62
1
10
62.021728363783325
20
217.84126592551121
0
VERTEX
8
Layer_1
6
CONTINUOUS
62
1
10
61.941418975927689
20
217.83601058060538
0
VERTEX
8
Layer_1
6
CONTINUOUS
62
1
10
61.884648388172096
20
217.80275122995738
0
VERTEX
8
Layer_1
6
CONTINUOUS
62
1
10
61.85246399443232
20
217.74700047312245
0
VERTEX
8
Layer_1
6
CONTINUOUS
62
1
10
61.845913188624117
20
217.67427090965595
0
VERTEX
8
Layer_1
6
CONTINUOUS
62
1
10
61.866043364663255
20
217.59007513911314
0
VERTEX
8
Layer_1
6
CONTINUOUS
62
1
10
61.913901916465505
20
217.49992576104927
0
VERTEX
8
Layer_1
6
CONTINUOUS
62
1
10
61.990536237946614
20
217.40933537501974
0
VERTEX
8
Layer_1
6
CONTINUOUS
62
1
10
62.096993723022365
20
217.32381658057977
0
VERTEX
8
Layer_1
6
CONTINUOUS
62
1
10
62.394453681281071
20
217.12369652348522
0
VERTEX
8
Layer_1
6
CONTINUOUS
62
1
10
62.558159900006771
20
217.02322573857327
0
VERTEX
8
Layer_1
6
CONTINUOUS
62
1
10
62.725127162009102
20
216.93668183104796
0
VERTEX
8
Layer_1
6
CONTINUOUS
62
1
10
62.890313129947373
20
216.87471533713159
0
VERTEX
8
Layer_1
6
CONTINUOUS
62
1
10
63.048675466480894
20
216.84797679304651
0
VERTEX
8
Layer_1
6
CONTINUOUS
62
1
10
63.195171834268962
20
216.86711673501503
0
VERTEX
8
Layer_1
6
CONTINUOUS
62
1
10
63.262394549464489
20
216.89721943083885
0
VERTEX
8
Layer_1
6
CONTINUOUS
62
1
10
63.324759895970885
20
216.94278569925942
0
VERTEX
8
Layer_1
6
CONTINUOUS
62
1
10
63.38755772700739
20
217.02197128396764
0
VERTEX
8
Layer_1
6
CONTINUOUS
62
1
10
63.423898094785741
20
217.11759648497605
0
VERTEX
8
Layer_1
6
CONTINUOUS
62
1
10
63.43703059401178
20
217.22491353474567
0
VERTEX
8
Layer_1
6
CONTINUOUS
62
1
10
63.430204819391342
20
217.33917466573752
0
VERTEX
8
Layer_1
6
CONTINUOUS
62
1
10
63.36967682743434
20
217.56953810123179
0
VERTEX
8
Layer_1
6
CONTINUOUS
62
1
10
63.268310876561372
20
217.77070465114684
0
VERTEX
8
Layer_1
6
CONTINUOUS
62
1
10
63.183149578242443
20
217.86054358799763
0
VERTEX
8
Layer_1
6
CONTINUOUS
62
1
10
63.129210454339834
20
217.89127282146288
0
VERTEX
8
Layer_1
6
CONTINUOUS
62
1
10
63.070739308504074
20
217.90712311481857
0
SEQEND
0
POLYLINE
8
Layer_1
6
CONTINUOUS
62
1
66
1
10
0
20
0
70
128
40
0
41
0
0
VERTEX
8
Layer_1
6
CONTINUOUS
62
1
10
62.525065453841876
20
217.66721478219461
0
VERTEX
8
Layer_1
6
CONTINUOUS
62
1
10
62.419811553002781
20
217.76129648127716
0
VERTEX
8
Layer_1
6
CONTINUOUS
62
1
10
62.320658262337474
20
217.83788486443714
0
VERTEX
8
Layer_1
6
CONTINUOUS
62
1
10
62.219299931849264
20
217.897714944949
0
SEQEND
0
POLYLINE
8
Layer_1
6
CONTINUOUS
62
1
66
1
10
0
20
0
70
128
40
0
41
0
0
VERTEX
8
Layer_1
6
CONTINUOUS
62
1
10
60.814045068612529
20
219.03252553440737
0
VERTEX
8
Layer_1
6
CONTINUOUS
62
1
10
60.845434112932793
20
219.00439005240668
0
VERTEX
8
Layer_1
6
CONTINUOUS
62
1
10
60.88144178944242
20
219.00477394347385
0
VERTEX
8
Layer_1
6
CONTINUOUS
62
1
10
61.323772486680717
20
219.18290989810643
0
VERTEX
8
Layer_1
6
CONTINUOUS
62
1
10
61.542072262620273
20
219.2466039313984
0
VERTEX
8
Layer_1
6
CONTINUOUS
62
1
10
61.758365823827454
20
219.29082803664767
0
VERTEX
8
Layer_1
6
CONTINUOUS
62
1
10
61.972581295592775
20
219.31366673983439
0
VERTEX
8
Layer_1
6
CONTINUOUS
62
1
10
62.184646803206746
20
219.31320456693868
0
VERTEX
8
Layer_1
6
CONTINUOUS
62
1
10
62.394490471959884
20
219.28752604394069
0
VERTEX
8
Layer_1
6
CONTINUOUS
62
1
10
62.602040427142697
20
219.23471569682061
0
VERTEX
8
Layer_1
6
CONTINUOUS
62
1
10
62.80517210360329
20
219.15661629405218
0
VERTEX
8
Layer_1
6
CONTINUOUS
62
1
10
63.005473814019183
20
219.05520270410145
0
VERTEX
8
Layer_1
6
CONTINUOUS
62
1
10
63.197429731433502
20
218.93233379514936
0
VERTEX
8
Layer_1
6
CONTINUOUS
62
1
10
63.375524028889394
20
218.78986843537697
0
VERTEX
8
Layer_1
6
CONTINUOUS
62
1
10
63.534240879430001
20
218.62966549296527
0
VERTEX
8
Layer_1
6
CONTINUOUS
62
1
10
63.66806445609847
20
218.45358383609533
0
VERTEX
8
Layer_1
6
CONTINUOUS
62
1
10
63.771478931937935
20
218.26348233294812
0
VERTEX
8
Layer_1
6
CONTINUOUS
62
1
10
63.838968479991536
20
218.06121985170466
0
VERTEX
8
Layer_1
6
CONTINUOUS
62
1
10
63.840714625978421
20
218.0030329194131
0
VERTEX
8
Layer_1
6
CONTINUOUS
62
1
10
63.827074941016178
20
217.94624897499318
0
SEQEND
0
POLYLINE
8
Layer_1
6
CONTINUOUS
62
1
66
1
10
0
20
0
70
128
40
0
41
0
0
VERTEX
8
Layer_1
6
CONTINUOUS
62
1
10
62.279132494035821
20
221.08277272546871
0
VERTEX
8
Layer_1
6
CONTINUOUS
62
1
10
62.144048713234234
20
221.08557003596999
0
VERTEX
8
Layer_1
6
CONTINUOUS
62
1
10
62.081367599187288
20
221.09979716688997
0
VERTEX
8
Layer_1
6
CONTINUOUS
62
1
10
62.027487757195672
20
221.12718062021685
0
VERTEX
8
Layer_1
6
CONTINUOUS
62
1
10
61.810995870088853
20
221.30561781350661
0
VERTEX
8
Layer_1
6
CONTINUOUS
62
1
10
61.629041189818544
20
221.50186181985868
0
VERTEX
8
Layer_1
6
CONTINUOUS
62
1
10
61.483480845877679
20
221.71800206850241
0
VERTEX
8
Layer_1
6
CONTINUOUS
62
1
10
61.376171967759205
20
221.95612798866716
0
VERTEX
8
Layer_1
6
CONTINUOUS
62
1
10
61.335965861681032
20
222.1195737123532
0
VERTEX
8
Layer_1
6
CONTINUOUS
62
1
10
61.336698283561972
20
222.2515638439321
0
VERTEX
8
Layer_1
6
CONTINUOUS
62
1
10
61.371661790967842
20
222.35302354787788
0
VERTEX
8
Layer_1
6
CONTINUOUS
62
1
10
61.434148941464493
20
222.42487798866455
0
VERTEX
8
Layer_1
6
CONTINUOUS
62
1
10
61.517452292617747
20
222.46805233076608
0
VERTEX
8
Layer_1
6
CONTINUOUS
62
1
10
61.61486440199343
20
222.48347173865645
0
VERTEX
8
Layer_1
6
CONTINUOUS
62
1
10
61.719677827157376
20
222.47206137680962
0
VERTEX
8
Layer_1
6
CONTINUOUS
62
1
10
61.825185125675432
20
222.43474640969961
0
VERTEX
8
Layer_1
6
CONTINUOUS
62
1
10
61.966293930708282
20
222.35192462439153
0
VERTEX
8
Layer_1
6
CONTINUOUS
62
1
10
62.10619314701826
20
222.2428936884539
0
VERTEX
8
Layer_1
6
CONTINUOUS
62
1
10
62.378974011047234
20
221.96453037452756
0
VERTEX
8
Layer_1
6
CONTINUOUS
62
1
10
62.636750112917653
20
221.63630848759544
0
VERTEX
8
Layer_1
6
CONTINUOUS
62
1
10
62.872743847784797
20
221.29488004733244
0
VERTEX
8
Layer_1
6
CONTINUOUS
62
1
10
63.252273797130513
20
220.71901158551304
0
VERTEX
8
Layer_1
6
CONTINUOUS
62
1
10
63.382254801919672
20
220.55787560330637
0
VERTEX
8
Layer_1
6
CONTINUOUS
62
1
10
63.429334109723769
20
220.52504243298654
0
VERTEX
8
Layer_1
6
CONTINUOUS
62
1
10
63.463343020326761
20
220.53014114646817
0
VERTEX
8
Layer_1
6
CONTINUOUS
62
1
10
63.476295322961242
20
220.59482556258604
0
VERTEX
8
Layer_1
6
CONTINUOUS
62
1
10
63.459642362440597
20
220.72103341620519
0
VERTEX
8
Layer_1
6
CONTINUOUS
62
1
10
63.381928546668419
20
221.1062102254192
0
VERTEX
8
Layer_1
6
CONTINUOUS
62
1
10
63.343071638784146
20
221.3392745757499
0
VERTEX
8
Layer_1
6
CONTINUOUS
62
1
10
63.319017362479258
20
221.58205315305361
0
VERTEX
8
Layer_1
6
CONTINUOUS
62
1
10
63.320867691437385
20
221.82159365469823
0
VERTEX
8
Layer_1
6
CONTINUOUS
62
1
10
63.359724599342144
20
222.04494377805179
0
SEQEND
0
POLYLINE
8
Layer_1
6
CONTINUOUS
62
1
66
1
10
0
20
0
70
129
40
0
41
0
0
VERTEX
8
Layer_1
6
CONTINUOUS
62
1
10
61.254106010737587
20
224.09742901259426
0
VERTEX
8
Layer_1
6
CONTINUOUS
62
1
10
61.203395631480653
20
223.95769778683797
0
VERTEX
8
Layer_1
6
CONTINUOUS
62
1
10
61.20411475021578
20
223.80527166194932
0
VERTEX
8
Layer_1
6
CONTINUOUS
62
1
10
61.250472074524573
20
223.64466157358538
0
VERTEX
8
Layer_1
6
CONTINUOUS
62
1
10
61.336676311988661
20
223.48037845740328
0
VERTEX
8
Layer_1
6
CONTINUOUS
62
1
10
61.456936170189657
20
223.31693324906013
0
VERTEX
8
Layer_1
6
CONTINUOUS
62
1
10
61.60546035670918
20
223.15883688421303
0
VERTEX
8
Layer_1
6
CONTINUOUS
62
1
10
61.776457579128845
20
223.01060029851905
0
VERTEX
8
Layer_1
6
CONTINUOUS
62
1
10
61.964136545030271
20
222.87673442763537
0
VERTEX
8
Layer_1
6
CONTINUOUS
62
1
10
62.162705961995073
20
222.76175020721902
0
VERTEX
8
Layer_1
6
CONTINUOUS
62
1
10
62.366374537604869
20
222.67015857292716
0
VERTEX
8
Layer_1
6
CONTINUOUS
62
1
10
62.569350979441275
20
222.60647046041689
0
VERTEX
8
Layer_1
6
CONTINUOUS
62
1
10
62.765843995085909
20
222.57519680534531
0
VERTEX
8
Layer_1
6
CONTINUOUS
62
1
10
62.950062292120393
20
222.58084854336951
0
VERTEX
8
Layer_1
6
CONTINUOUS
62
1
10
63.116214578126332
20
222.62793661014661
0
VERTEX
8
Layer_1
6
CONTINUOUS
62
1
10
63.258509560685354
20
222.72097194133372
0
VERTEX
8
Layer_1
6
CONTINUOUS
62
1
10
63.371155947379066
20
222.86446547258794
0
VERTEX
8
Layer_1
6
CONTINUOUS
62
1
10
63.419738061570058
20
223.00619135648964
0
VERTEX
8
Layer_1
6
CONTINUOUS
62
1
10
63.418566705589811
20
223.16096519819604
0
VERTEX
8
Layer_1
6
CONTINUOUS
62
1
10
63.373134830611257
20
223.32414341638761
0
VERTEX
8
Layer_1
6
CONTINUOUS
62
1
10
63.288935387807356
20
223.49108242974467
0
VERTEX
8
Layer_1
6
CONTINUOUS
62
1
10
63.171461328351064
20
223.65713865694761
0
VERTEX
8
Layer_1
6
CONTINUOUS
62
1
10
63.026205603415328
20
223.8176685166768
0
VERTEX
8
Layer_1
6
CONTINUOUS
62
1
10
62.8586611641731
20
223.96802842761261
0
VERTEX
8
Layer_1
6
CONTINUOUS
62
1
10
62.674320961797328
20
224.10357480843541
0
VERTEX
8
Layer_1
6
CONTINUOUS
62
1
10
62.478677947460966
20
224.21966407782557
0
VERTEX
8
Layer_1
6
CONTINUOUS
62
1
10
62.277225072336947
20
224.31165265446344
0
VERTEX
8
Layer_1
6
CONTINUOUS
62
1
10
62.075455287598245
20
224.37489695702945
0
VERTEX
8
Layer_1
6
CONTINUOUS
62
1
10
61.878861544417795
20
224.40475340420397
0
VERTEX
8
Layer_1
6
CONTINUOUS
62
1
10
61.692936793968556
20
224.39657841466732
0
VERTEX
8
Layer_1
6
CONTINUOUS
62
1
10
61.523173987423476
20
224.3457284070999
0
VERTEX
8
Layer_1
6
CONTINUOUS
62
1
10
61.375066075955502
20
224.2475598001821
0
VERTEX
8
Layer_1
6
CONTINUOUS
62
1
10
61.254106010737587
20
224.09742901259426
0
SEQEND
0
POLYLINE
8
Layer_1
6
CONTINUOUS
62
1
66
1
10
0
20
0
70
128
40
0
41
0
0
VERTEX
8
Layer_1
6
CONTINUOUS
62
1
10
61.958408809990715
20
224.76731592638868
0
VERTEX
8
Layer_1
6
CONTINUOUS
62
1
10
61.856023941580148
20
225.00130544119588
0
VERTEX
8
Layer_1
6
CONTINUOUS
62
1
10
61.746237757378033
20
225.18857415008239
0
VERTEX
8
Layer_1
6
CONTINUOUS
62
1
10
61.658655520541977
20
225.3231084839679
0
VERTEX
8
Layer_1
6
CONTINUOUS
62
1
10
61.6228824942296
20
225.39889487377215
0
VERTEX
8
Layer_1
6
CONTINUOUS
62
1
10
61.657550042706205
20
225.39484740876202
0
VERTEX
8
Layer_1
6
CONTINUOUS
62
1
10
61.746363895739293
20
225.35132395743273
0
VERTEX
8
Layer_1
6
CONTINUOUS
62
1
10
62.082685449358202
20
225.17603197865463
0
VERTEX
8
Layer_1
6
CONTINUOUS
62
1
10
62.624357022852884
20
224.93338470311372
0
VERTEX
8
Layer_1
6
CONTINUOUS
62
1
10
62.969858400730693
20
224.8056671308309
0
VERTEX
8
Layer_1
6
CONTINUOUS
62
1
10
63.363888483989911
20
224.68374789648573
0
SEQEND
0
POLYLINE
8
Layer_1
6
CONTINUOUS
62
1
66
1
10
0
20
0
70
128
40
0
41
0
0
VERTEX
8
Layer_1
6
CONTINUOUS
62
1
10
63.492948283649241
20
224.19494750526712
0
VERTEX
8
Layer_1
6
CONTINUOUS
62
1
10
63.423098365896266
20
224.42199828652025
0
VERTEX
8
Layer_1
6
CONTINUOUS
62
1
10
63.370826573143148
20
224.64581099211472
0
VERTEX
8
Layer_1
6
CONTINUOUS
62
1
10
63.338908398811043
20
224.86869853323458
0
VERTEX
8
Layer_1
6
CONTINUOUS
62
1
10
63.330119336321104
20
225.09297382106391
0
SEQEND
0
POLYLINE
8
Layer_1
6
CONTINUOUS
62
1
66
1
10
0
20
0
70
129
40
0
41
0
0
VERTEX
8
Layer_1
6
CONTINUOUS
62
1
10
61.254106010875262
20
227.16412681014981
0
VERTEX
8
Layer_1
6
CONTINUOUS
62
1
10
61.203395631618335
20
227.02439558439352
0
VERTEX
8
Layer_1
6
CONTINUOUS
62
1
10
61.204114750353469
20
226.87196945950487
0
VERTEX
8
Layer_1
6
CONTINUOUS
62
1
10
61.25047207466227
20
226.71135937114093
0
VERTEX
8
Layer_1
6
CONTINUOUS
62
1
10
61.336676312126357
20
226.54707625495882
0
VERTEX
8
Layer_1
6
CONTINUOUS
62
1
10
61.45693617032736
20
226.38363104661568
0
VERTEX
8
Layer_1
6
CONTINUOUS
62
1
10
61.605460356846883
20
226.22553468176858
0
VERTEX
8
Layer_1
6
CONTINUOUS
62
1
10
61.776457579266548
20
226.0772980960746
0
VERTEX
8
Layer_1
6
CONTINUOUS
62
1
10
61.964136545167968
20
225.94343222519092
0
VERTEX
8
Layer_1
6
CONTINUOUS
62
1
10
62.162705962132762
20
225.82844800477457
0
VERTEX
8
Layer_1
6
CONTINUOUS
62
1
10
62.366374537742558
20
225.73685637048271
0
VERTEX
8
Layer_1
6
CONTINUOUS
62
1
10
62.569350979578957
20
225.67316825797243
0
VERTEX
8
Layer_1
6
CONTINUOUS
62
1
10
62.765843995223591
20
225.64189460290086
0
VERTEX
8
Layer_1
6
CONTINUOUS
62
1
10
62.950062292258067
20
225.64754634092506
0
VERTEX
8
Layer_1
6
CONTINUOUS
62
1
10
63.116214578264007
20
225.69463440770215
0
VERTEX
8
Layer_1
6
CONTINUOUS
62
1
10
63.258509560823029
20
225.78766973888926
0
VERTEX
8
Layer_1
6
CONTINUOUS
62
1
10
63.371155947516741
20
225.93116327014349
0
VERTEX
8
Layer_1
6
CONTINUOUS
62
1
10
63.419738061707733
20
226.07288915404519
0
VERTEX
8
Layer_1
6
CONTINUOUS
62
1
10
63.418566705727486
20
226.22766299575159
0
VERTEX
8
Layer_1
6
CONTINUOUS
62
1
10
63.373134830748931
20
226.39084121394316
0
VERTEX
8
Layer_1
6
CONTINUOUS
62
1
10
63.288935387945031
20
226.55778022730021
0
VERTEX
8
Layer_1
6
CONTINUOUS
62
1
10
63.171461328488739
20
226.72383645450316
0
VERTEX
8
Layer_1
6
CONTINUOUS
62
1
10
63.026205603553002
20
226.88436631423235
0
VERTEX
8
Layer_1
6
CONTINUOUS
62
1
10
62.858661164310774
20
227.03472622516816
0
VERTEX
8
Layer_1
6
CONTINUOUS
62
1
10
62.674320961935003
20
227.17027260599096
0
VERTEX
8
Layer_1
6
CONTINUOUS
62
1
10
62.478677947598641
20
227.28636187538112
0
VERTEX
8
Layer_1
6
CONTINUOUS
62
1
10
62.277225072474621
20
227.37835045201899
0
VERTEX
8
Layer_1
6
CONTINUOUS
62
1
10
62.07545528773592
20
227.441594754585
0
VERTEX
8
Layer_1
6
CONTINUOUS
62
1
10
61.87886154455547
20
227.47145120175952
0
VERTEX
8
Layer_1
6
CONTINUOUS
62
1
10
61.692936794106231
20
227.46327621222287
0
VERTEX
8
Layer_1
6
CONTINUOUS
62
1
10
61.523173987561151
20
227.41242620465545
0
VERTEX
8
Layer_1
6
CONTINUOUS
62
1
10
61.375066076093177
20
227.31425759773765
0
VERTEX
8
Layer_1
6
CONTINUOUS
62
1
10
61.254106010875262
20
227.16412681014981
0
SEQEND
0
POLYLINE
8
Layer_1
6
CONTINUOUS
62
1
66
1
10
0
20
0
70
128
40
0
41
0
0
VERTEX
8
Layer_1
6
CONTINUOUS
62
1
10
61.07900701962069
20
229.63913920837649
0
VERTEX
8
Layer_1
6
CONTINUOUS
62
1
10
61.098124025890421
20
229.56831404213904
0
VERTEX
8
Layer_1
6
CONTINUOUS
62
1
10
61.153020177510086
20
229.52071815574158
0
VERTEX
8
Layer_1
6
CONTINUOUS
62
1
10
61.724155045920227
20
229.2777082872949
0
VERTEX
8
Layer_1
6
CONTINUOUS
62
1
10
62.291589256436296
20
229.04950105042732
0
VERTEX
8
Layer_1
6
CONTINUOUS
62
1
10
62.868275111690195
20
228.84349776092773
0
VERTEX
8
Layer_1
6
CONTINUOUS
62
1
10
63.467164914313855
20
228.66709973458504
0
SEQEND
0
POLYLINE
8
Layer_1
6
CONTINUOUS
62
1
66
1
10
0
20
0
70
129
40
0
41
0
0
VERTEX
8
Layer_1
6
CONTINUOUS
62
1
10
62.575437154554265
20
228.94417125233076
0
VERTEX
8
Layer_1
6
CONTINUOUS
62
1
10
62.672649717047371
20
229.07060147836759
0
VERTEX
8
Layer_1
6
CONTINUOUS
62
1
10
62.702841994598167
20
229.13775188491084
0
VERTEX
8
Layer_1
6
CONTINUOUS
62
1
10
62.717164914338241
20
229.20986289251348
0
VERTEX
8
Layer_1
6
CONTINUOUS
62
1
10
62.712372407040831
20
229.46608258854249
0
VERTEX
8
Layer_1
6
CONTINUOUS
62
1
10
62.664108157890759
20
229.72989688404726
0
VERTEX
8
Layer_1
6
CONTINUOUS
62
1
10
62.576113170437161
20
229.99130392685055
0
VERTEX
8
Layer_1
6
CONTINUOUS
62
1
10
62.452128448229161
20
230.24030186477506
0
VERTEX
8
Layer_1
6
CONTINUOUS
62
1
10
62.295894994815889
20
230.4668888456435
0
VERTEX
8
Layer_1
6
CONTINUOUS
62
1
10
62.111153813746476
20
230.66106301727854
0
VERTEX
8
Layer_1
6
CONTINUOUS
62
1
10
61.901645908570046
20
230.81282252750293
0
VERTEX
8
Layer_1
6
CONTINUOUS
62
1
10
61.788773498050809
20
230.86967120578072
0
VERTEX
8
Layer_1
6
CONTINUOUS
62
1
10
61.671112282835736
20
230.91216552413937
0
VERTEX
8
Layer_1
6
CONTINUOUS
62
1
10
61.487176816272239
20
230.95881525623543
0
VERTEX
8
Layer_1
6
CONTINUOUS
62
1
10
61.328560499327494
20
230.98514750914651
0
VERTEX
8
Layer_1
6
CONTINUOUS
62
1
10
61.193868357443584
20
230.99281745993895
0
VERTEX
8
Layer_1
6
CONTINUOUS
62
1
10
61.081705416062604
20
230.98348028567901
0
VERTEX
8
Layer_1
6
CONTINUOUS
62
1
10
60.990676700626665
20
230.95879116343292
0
VERTEX
8
Layer_1
6
CONTINUOUS
62
1
10
60.919387236577862
20
230.92040527026691
0
VERTEX
8
Layer_1
6
CONTINUOUS
62
1
10
60.866442049358284
20
230.86997778324729
0
VERTEX
8
Layer_1
6
CONTINUOUS
62
1
10
60.830446164410034
20
230.80916387944029
0
VERTEX
8
Layer_1
6
CONTINUOUS
62
1
10
60.810004607175209
20
230.73961873591222
0
VERTEX
8
Layer_1
6
CONTINUOUS
62
1
10
60.803722403095904
20
230.6629975297293
0
VERTEX
8
Layer_1
6
CONTINUOUS
62
1
10
60.828056156172252
20
230.49514763766408
0
VERTEX
8
Layer_1
6
CONTINUOUS
62
1
10
60.892287627175847
20
230.31885561977469
0
VERTEX
8
Layer_1
6
CONTINUOUS
62
1
10
60.985257019643484
20
230.14736289259122
0
VERTEX
8
Layer_1
6
CONTINUOUS
62
1
10
61.097531575545609
20
230.00305164606496
0
VERTEX
8
Layer_1
6
CONTINUOUS
62
1
10
61.254032656790883
20
229.84902391418589
0
VERTEX
8
Layer_1
6
CONTINUOUS
62
1
10
61.660688750888447
20
229.52777327450002
0
VERTEX
8
Layer_1
6
CONTINUOUS
62
1
10
62.127174013091221
20
229.21551953379463
0
VERTEX
8
Layer_1
6
CONTINUOUS
62
1
10
62.575437154554265
20
228.94417125233076
0
SEQEND
0
POLYLINE
8
Layer_1
6
CONTINUOUS
62
1
66
1
10
0
20
0
70
128
40
0
41
0
0
VERTEX
8
Layer_1
6
CONTINUOUS
62
1
10
62.702362282759964
20
229.2246655240931
0
VERTEX
8
Layer_1
6
CONTINUOUS
62
1
10
62.907440407765264
20
229.34262399447863
0
VERTEX
8
Layer_1
6
CONTINUOUS
62
1
10
63.110668203823899
20
229.47631026091688
0
VERTEX
8
Layer_1
6
CONTINUOUS
62
1
10
63.282440407778097
20
229.62849981683021
0
VERTEX
8
Layer_1
6
CONTINUOUS
62
1
10
63.34727901797924
20
229.71240067003453
0
VERTEX
8
Layer_1
6
CONTINUOUS
62
1
10
63.393151756470104
20
229.80196815564102
0
VERTEX
8
Layer_1
6
CONTINUOUS
62
1
10
63.399983068253498
20
229.85013081171621
0
VERTEX
8
Layer_1
6
CONTINUOUS
62
1
10
63.387299691508055
20
229.89891865987215
0
VERTEX
8
Layer_1
6
CONTINUOUS
62
1
10
63.319138598583777
20
229.98946815564435
0
SEQEND
0
POLYLINE
8
Layer_1
6
CONTINUOUS
62
1
66
1
10
0
20
0
70
129
40
0
41
0
0
VERTEX
8
Layer_1
6
CONTINUOUS
62
1
10
63.442517181547771
20
230.60372338870889
0
VERTEX
8
Layer_1
6
CONTINUOUS
62
1
10
63.45989289864081
20
230.62957015503417
0
VERTEX
8
Layer_1
6
CONTINUOUS
62
1
10
63.459861925885924
20
230.66604057726528
0
VERTEX
8
Layer_1
6
CONTINUOUS
62
1
10
63.421703488359874
20
230.75041036933749
0
VERTEX
8
Layer_1
6
CONTINUOUS
62
1
10
63.356289024024569
20
230.81594872471055
0
VERTEX
8
Layer_1
6
CONTINUOUS
62
1
10
63.322188017758116
20
230.82887985106771
0
VERTEX
8
Layer_1
6
CONTINUOUS
62
1
10
63.291865687934944
20
230.82177160316945
0
VERTEX
8
Layer_1
6
CONTINUOUS
62
1
10
63.27448997084413
20
230.79592483684098
0
VERTEX
8
Layer_1
6
CONTINUOUS
62
1
10
63.274520943599327
20
230.75945441460942
0
VERTEX
8
Layer_1
6
CONTINUOUS
62
1
10
63.312679381122841
20
230.67508462254085
0
VERTEX
8
Layer_1
6
CONTINUOUS
62
1
10
63.378093845455609
20
230.60954626717145
0
VERTEX
8
Layer_1
6
CONTINUOUS
62
1
10
63.412194851722383
20
230.59661514081381
0
VERTEX
8
Layer_1
6
CONTINUOUS
62
1
10
63.442517181547771
20
230.60372338870889
0
SEQEND
0
POLYLINE
8
Layer_1
6
CONTINUOUS
62
1
66
1
10
0
20
0
70
128
40
0
41
0
0
VERTEX
8
Layer_1
6
CONTINUOUS
62
1
10
63.092164914501382
20
232.84328522514471
0
VERTEX
8
Layer_1
6
CONTINUOUS
62
1
10
63.142031811885822
20
232.76922817972508
0
VERTEX
8
Layer_1
6
CONTINUOUS
62
1
10
63.187725544372221
20
232.72515832332564
0
VERTEX
8
Layer_1
6
CONTINUOUS
62
1
10
63.228813304027184
20
232.71178020730747
0
VERTEX
8
Layer_1
6
CONTINUOUS
62
1
10
63.264862282917306
20
232.72979838303169
0
VERTEX
8
Layer_1
6
CONTINUOUS
62
1
10
63.358070758890094
20
232.85521652321009
0
VERTEX
8
Layer_1
6
CONTINUOUS
62
1
10
63.421429031358443
20
233.00530096797399
0
VERTEX
8
Layer_1
6
CONTINUOUS
62
1
10
63.458044590846448
20
233.17385596417796
0
VERTEX
8
Layer_1
6
CONTINUOUS
62
1
10
63.471024927878226
20
233.35468575867668
0
VERTEX
8
Layer_1
6
CONTINUOUS
62
1
10
63.463477532977883
20
233.54159459832482
0
VERTEX
8
Layer_1
6
CONTINUOUS
62
1
10
63.438509896669522
20
233.72838672997705
0
VERTEX
8
Layer_1
6
CONTINUOUS
62
1
10
63.348743861925186
20
234.0768378567121
0
VERTEX
8
Layer_1
6
CONTINUOUS
62
1
10
63.300510026609558
20
234.19059453845767
0
VERTEX
8
Layer_1
6
CONTINUOUS
62
1
10
63.232096041211811
20
234.30689542250681
0
VERTEX
8
Layer_1
6
CONTINUOUS
62
1
10
63.146913449727961
20
234.41024400392513
0
VERTEX
8
Layer_1
6
CONTINUOUS
62
1
10
63.048373796154024
20
234.48514377777826
0
VERTEX
8
Layer_1
6
CONTINUOUS
62
1
10
62.939888624486009
20
234.51609823913179
0
VERTEX
8
Layer_1
6
CONTINUOUS
62
1
10
62.88298257686548
20
234.51025331982925
0
VERTEX
8
Layer_1
6
CONTINUOUS
62
1
10
62.824869478719933
20
234.48761088305145
0
VERTEX
8
Layer_1
6
CONTINUOUS
62
1
10
62.765975773048872
20
234.44623386568156
0
VERTEX
8
Layer_1
6
CONTINUOUS
62
1
10
62.70672790285181
20
234.38418520460283
0
VERTEX
8
Layer_1
6
CONTINUOUS
62
1
10
62.588875440877644
20
234.19032469885153
0
VERTEX
8
Layer_1
6
CONTINUOUS
62
1
10
62.527531406973289
20
234.03124057840432
0
VERTEX
8
Layer_1
6
CONTINUOUS
62
1
10
62.478667213273752
20
233.85254809258302
0
VERTEX
8
Layer_1
6
CONTINUOUS
62
1
10
62.394637813269
20
233.47870150860544
0
VERTEX
8
Layer_1
6
CONTINUOUS
62
1
10
62.347602340353745
20
233.3047291523427
0
VERTEX
8
Layer_1
6
CONTINUOUS
62
1
10
62.289306174423196
20
233.15351191449307
0
VERTEX
8
Layer_1
6
CONTINUOUS
62
1
10
62.213814182172342
20
233.0356406660033
0
VERTEX
8
Layer_1
6
CONTINUOUS
62
1
10
62.115191230296148
20
232.96170627782016
0
VERTEX
8
Layer_1
6
CONTINUOUS
62
1
10
62.032897539254947
20
232.94813098629541
0
VERTEX
8
Layer_1
6
CONTINUOUS
62
1
10
61.949964599736411
20
232.97274289578266
0
VERTEX
8
Layer_1
6
CONTINUOUS
62
1
10
61.868071191090777
20
233.0280799323852
0
VERTEX
8
Layer_1
6
CONTINUOUS
62
1
10
61.788896092668324
20
233.10668002220626
0
VERTEX
8
Layer_1
6
CONTINUOUS
62
1
10
61.645415943893916
20
233.30382106591705
0
VERTEX
8
Layer_1
6
CONTINUOUS
62
1
10
61.532954388215217
20
233.50446943574104
0
VERTEX
8
Layer_1
6
CONTINUOUS
62
1
10
61.462665370602004
20
233.66520222083528
0
VERTEX
8
Layer_1
6
CONTINUOUS
62
1
10
61.409238631238928
20
233.83635001456156
0
VERTEX
8
Layer_1
6
CONTINUOUS
62
1
10
61.374636762841476
20
234.0135334297708
0
VERTEX
8
Layer_1
6
CONTINUOUS
62
1
10
61.36082235812512
20
234.192373079314
0
VERTEX
8
Layer_1
6
CONTINUOUS
62
1
10
61.369758009805345
20
234.36848957604207
0
VERTEX
8
Layer_1
6
CONTINUOUS
62
1
10
61.403406310597639
20
234.53750353280603
0
VERTEX
8
Layer_1
6
CONTINUOUS
62
1
10
61.463729853217473
20
234.69503556245681
0
VERTEX
8
Layer_1
6
CONTINUOUS
62
1
10
61.552691230380333
20
234.83670627784539
0
VERTEX
8
Layer_1
6
CONTINUOUS
62
1
10
61.640890243541961
20
234.91997108047303
0
VERTEX
8
Layer_1
6
CONTINUOUS
62
1
10
61.754993861965261
20
234.96992996204682
0
SEQEND
0
POLYLINE
8
Layer_1
6
CONTINUOUS
62
1
66
1
10
0
20
0
70
128
40
0
41
0
0
VERTEX
8
Layer_1
6
CONTINUOUS
62
1
10
62.29019674930089
20
235.21908008310663
0
VERTEX
8
Layer_1
6
CONTINUOUS
62
1
10
62.362018971717816
20
235.21189786086168
0
VERTEX
8
Layer_1
6
CONTINUOUS
62
1
10
63.022804296497497
20
234.95727072019793
0
VERTEX
8
Layer_1
6
CONTINUOUS
62
1
10
63.305355265572359
20
234.85974609242155
0
VERTEX
8
Layer_1
6
CONTINUOUS
62
1
10
63.394034773326105
20
234.83927475015474
0
VERTEX
8
Layer_1
6
CONTINUOUS
62
1
10
63.432170085717416
20
234.845604526486
0
VERTEX
8
Layer_1
6
CONTINUOUS
62
1
10
63.396035071162132
20
234.8924809485024
0
VERTEX
8
Layer_1
6
CONTINUOUS
62
1
10
63.283211901463488
20
234.97346787486754
0
VERTEX
8
Layer_1
6
CONTINUOUS
62
1
10
62.930986303939875
20
235.19381078458676
0
VERTEX
8
Layer_1
6
CONTINUOUS
62
1
10
62.582463707753973
20
235.41870834352943
0
VERTEX
8
Layer_1
6
CONTINUOUS
62
1
10
62.474269289727474
20
235.50538858142389
0
VERTEX
8
Layer_1
6
CONTINUOUS
62
1
10
62.448007495279683
20
235.53747817134564
0
VERTEX
8
Layer_1
6
CONTINUOUS
62
1
10
62.444614527513181
20
235.56023563958132
0
VERTEX
8
Layer_1
6
CONTINUOUS
62
1
10
62.490263028694542
20
235.56245827664344
0
VERTEX
8
Layer_1
6
CONTINUOUS
62
1
10
62.59266875523786
20
235.53325480569049
0
VERTEX
8
Layer_1
6
CONTINUOUS
62
1
10
62.894061678104059
20
235.42357290488238
0
VERTEX
8
Layer_1
6
CONTINUOUS
62
1
10
63.201412883499238
20
235.31719666744249
0
VERTEX
8
Layer_1
6
CONTINUOUS
62
1
10
63.311266463203779
20
235.2921252756999
0
VERTEX
8
Layer_1
6
CONTINUOUS
62
1
10
63.367341958810869
20
235.30013282365638
0
VERTEX
8
Layer_1
6
CONTINUOUS
62
1
10
63.365467983815577
20
235.3231929262644
0
VERTEX
8
Layer_1
6
CONTINUOUS
62
1
10
63.335007455410114
20
235.35769967391502
0
VERTEX
8
Layer_1
6
CONTINUOUS
62
1
10
63.204595896766477
20
235.45478625547224
0
VERTEX
8
Layer_1
6
CONTINUOUS
62
1
10
62.779694880933548
20
235.71738382150667
0
VERTEX
8
Layer_1
6
CONTINUOUS
62
1
10
62.352945445678031
20
235.98765593980795
0
VERTEX
8
Layer_1
6
CONTINUOUS
62
1
10
62.220223362756172
20
236.09433571169879
0
VERTEX
8
Layer_1
6
CONTINUOUS
62
1
10
62.188260993569855
20
236.13507803306626
0
VERTEX
8
Layer_1
6
CONTINUOUS
62
1
10
62.18465412536591
20
236.1653330284245
0
VERTEX
8
Layer_1
6
CONTINUOUS
62
1
10
62.204903615874201
20
236.17994814379713
0
VERTEX
8
Layer_1
6
CONTINUOUS
62
1
10
62.242300585133293
20
236.18009732089408
0
VERTEX
8
Layer_1
6
CONTINUOUS
62
1
10
62.360330732481344
20
236.14565809533437
0
VERTEX
8
Layer_1
6
CONTINUOUS
62
1
10
62.711892270538605
20
235.99845097071545
0
VERTEX
8
Layer_1
6
CONTINUOUS
62
1
10
62.912598751557383
20
235.92032401195041
0
VERTEX
8
Layer_1
6
CONTINUOUS
62
1
10
63.108039100775983
20
235.86227541574436
0
VERTEX
8
Layer_1
6
CONTINUOUS
62
1
10
63.281800863349183
20
235.84162565224437
0
VERTEX
8
Layer_1
6
CONTINUOUS
62
1
10
63.355423382504632
20
235.85073797968016
0
VERTEX
8
Layer_1
6
CONTINUOUS
62
1
10
63.41747158443178
20
235.87569519159757
0
VERTEX
8
Layer_1
6
CONTINUOUS
62
1
10
63.443935401110465
20
235.90403016289636
0
VERTEX
8
Layer_1
6
CONTINUOUS
62
1
10
63.455697939407145
20
235.94429848412432
0
VERTEX
8
Layer_1
6
CONTINUOUS
62
1
10
63.444036751182395
20
236.04293312820249
0
VERTEX
8
Layer_1
6
CONTINUOUS
62
1
10
63.400323160413457
20
236.13619502750169
0
VERTEX
8
Layer_1
6
CONTINUOUS
62
1
10
63.342392307756256
20
236.18868008569143
0
SEQEND
0
POLYLINE
8
Layer_1
6
CONTINUOUS
62
1
66
1
10
0
20
0
70
129
40
0
41
0
0
VERTEX
8
Layer_1
6
CONTINUOUS
62
1
10
62.126641563008207
20
237.52087307494781
0
VERTEX
8
Layer_1
6
CONTINUOUS
62
1
10
62.072319607270941
20
237.41329033448579
0
VERTEX
8
Layer_1
6
CONTINUOUS
62
1
10
62.05347003313161
20
237.2999339516181
0
VERTEX
8
Layer_1
6
CONTINUOUS
62
1
10
62.066200499772236
20
237.18325349173571
0
VERTEX
8
Layer_1
6
CONTINUOUS
62
1
10
62.106618666374835
20
237.0656985202296
0
VERTEX
8
Layer_1
6
CONTINUOUS
62
1
10
62.170832192121438
20
236.94971860249078
0
VERTEX
8
Layer_1
6
CONTINUOUS
62
1
10
62.254948736194088
20
236.83776330391026
0
VERTEX
8
Layer_1
6
CONTINUOUS
62
1
10
62.355075957774787
20
236.73228218987904
0
VERTEX
8
Layer_1
6
CONTINUOUS
62
1
10
62.467321516045573
20
236.63572482578815
0
VERTEX
8
Layer_1
6
CONTINUOUS
62
1
10
62.712598279385503
20
236.47917960899116
0
VERTEX
8
Layer_1
6
CONTINUOUS
62
1
10
62.837844802818694
20
236.42409088706711
0
VERTEX
8
Layer_1
6
CONTINUOUS
62
1
10
62.959640299670077
20
236.38772417664734
0
VERTEX
8
Layer_1
6
CONTINUOUS
62
1
10
63.07409242912167
20
236.37252904312282
0
VERTEX
8
Layer_1
6
CONTINUOUS
62
1
10
63.177308850355502
20
236.3809550518846
0
VERTEX
8
Layer_1
6
CONTINUOUS
62
1
10
63.265397222553602
20
236.41545176832366
0
VERTEX
8
Layer_1
6
CONTINUOUS
62
1
10
63.334465204897981
20
236.47846875783097
0
VERTEX
8
Layer_1
6
CONTINUOUS
62
1
10
63.406616639279676
20
236.6054017350292
0
VERTEX
8
Layer_1
6
CONTINUOUS
62
1
10
63.440599321347193
20
236.73632484664506
0
VERTEX
8
Layer_1
6
CONTINUOUS
62
1
10
63.440373971967865
20
236.86861784366386
0
VERTEX
8
Layer_1
6
CONTINUOUS
62
1
10
63.409901312009026
20
236.99966047707113
0
VERTEX
8
Layer_1
6
CONTINUOUS
62
1
10
63.353142062337994
20
237.12683249785226
0
VERTEX
8
Layer_1
6
CONTINUOUS
62
1
10
63.27405694382211
20
237.24751365699262
0
VERTEX
8
Layer_1
6
CONTINUOUS
62
1
10
63.176606677328692
20
237.35908370547764
0
VERTEX
8
Layer_1
6
CONTINUOUS
62
1
10
63.064751983725074
20
237.45892239429278
0
VERTEX
8
Layer_1
6
CONTINUOUS
62
1
10
62.942453583878581
20
237.54440947442345
0
VERTEX
8
Layer_1
6
CONTINUOUS
62
1
10
62.813672198656541
20
237.61292469685503
0
VERTEX
8
Layer_1
6
CONTINUOUS
62
1
10
62.682368548926277
20
237.66184781257297
0
VERTEX
8
Layer_1
6
CONTINUOUS
62
1
10
62.552503355555132
20
237.6885585725627
0
VERTEX
8
Layer_1
6
CONTINUOUS
62
1
10
62.428037339410423
20
237.69043672780964
0
VERTEX
8
Layer_1
6
CONTINUOUS
62
1
10
62.312931221359477
20
237.66486202929917
0
VERTEX
8
Layer_1
6
CONTINUOUS
62
1
10
62.211145722269634
20
237.60921422801675
0
VERTEX
8
Layer_1
6
CONTINUOUS
62
1
10
62.126641563008207
20
237.52087307494781
0
SEQEND
0
POLYLINE
8
Layer_1
6
CONTINUOUS
62
1
66
1
10
0
20
0
70
128
40
0
41
0
0
VERTEX
8
Layer_1
6
CONTINUOUS
62
1
10
61.951644199539032
20
238.45031084815633
0
VERTEX
8
Layer_1
6
CONTINUOUS
62
1
10
62.007343783500517
20
238.36861812500496
0
VERTEX
8
Layer_1
6
CONTINUOUS
62
1
10
62.279046815807348
20
238.21954350650239
0
VERTEX
8
Layer_1
6
CONTINUOUS
62
1
10
62.56911601266961
20
238.11028393690992
0
VERTEX
8
Layer_1
6
CONTINUOUS
62
1
10
63.173321741151767
20
237.9453012868176
0
VERTEX
8
Layer_1
6
CONTINUOUS
62
1
10
63.315232386911966
20
237.92328254502496
0
VERTEX
8
Layer_1
6
CONTINUOUS
62
1
10
63.403488667807594
20
237.94251630760897
0
VERTEX
8
Layer_1
6
CONTINUOUS
62
1
10
63.445705761333443
20
237.99308108617544
0
VERTEX
8
Layer_1
6
CONTINUOUS
62
1
10
63.449498844984305
20
238.06505539233018
0
VERTEX
8
Layer_1
6
CONTINUOUS
62
1
10
63.422483096254965
20
238.14851773767919
0
VERTEX
8
Layer_1
6
CONTINUOUS
62
1
10
63.372273692640206
20
238.23354663382821
0
VERTEX
8
Layer_1
6
CONTINUOUS
62
1
10
63.306485811634822
20
238.31022059238319
0
VERTEX
8
Layer_1
6
CONTINUOUS
62
1
10
63.232734630733603
20
238.36861812494999
0
VERTEX
8
Layer_1
6
CONTINUOUS
62
1
10
62.956732733068847
20
238.52693575667274
0
VERTEX
8
Layer_1
6
CONTINUOUS
62
1
10
62.67125289790323
20
238.66746983875208
0
VERTEX
8
Layer_1
6
CONTINUOUS
62
1
10
62.375019439740996
20
238.7866871070633
0
VERTEX
8
Layer_1
6
CONTINUOUS
62
1
10
62.066756673086388
20
238.88105429748163
0
SEQEND
0
POLYLINE
8
Layer_1
6
CONTINUOUS
62
1
66
1
10
0
20
0
70
128
40
0
41
0
0
VERTEX
8
Layer_1
6
CONTINUOUS
62
1
10
62.482646900019915
20
238.74366199034887
0
VERTEX
8
Layer_1
6
CONTINUOUS
62
1
10
62.730800150661466
20
238.67363136758155
0
VERTEX
8
Layer_1
6
CONTINUOUS
62
1
10
62.966769117311891
20
238.63179865919716
0
VERTEX
8
Layer_1
6
CONTINUOUS
62
1
10
63.325567270686179
20
238.60626968319701
0
VERTEX
8
Layer_1
6
CONTINUOUS
62
1
10
63.349454873691073
20
238.62437204797965
0
VERTEX
8
Layer_1
6
CONTINUOUS
62
1
10
63.348863643135708
20
238.66753922555324
0
VERTEX
8
Layer_1
6
CONTINUOUS
62
1
10
63.310714048302486
20
238.76222851830008
0
SEQEND
0
POLYLINE
8
Layer_1
6
CONTINUOUS
62
1
66
1
10
0
20
0
70
128
40
0
41
0
0
VERTEX
8
Layer_1
6
CONTINUOUS
62
1
10
61.691712807767885
20
239.92389166300961
0
VERTEX
8
Layer_1
6
CONTINUOUS
62
1
10
62.457117924071468
20
239.53631539121778
0
VERTEX
8
Layer_1
6
CONTINUOUS
62
1
10
62.849393848218305
20
239.36567739490695
0
VERTEX
8
Layer_1
6
CONTINUOUS
62
1
10
63.25872776995601
20
239.22950351617379
0
VERTEX
8
Layer_1
6
CONTINUOUS
62
1
10
63.337129573966671
20
239.21981738366728
0
VERTEX
8
Layer_1
6
CONTINUOUS
62
1
10
63.397886925484073
20
239.23465674980002
0
VERTEX
8
Layer_1
6
CONTINUOUS
62
1
10
63.44041213680962
20
239.26897779297812
0
VERTEX
8
Layer_1
6
CONTINUOUS
62
1
10
63.464117520244692
20
239.31773669160776
0
VERTEX
8
Layer_1
6
CONTINUOUS
62
1
10
63.468415388090669
20
239.37588962409509
0
VERTEX
8
Layer_1
6
CONTINUOUS
62
1
10
63.45271805264894
20
239.43839276884628
0
VERTEX
8
Layer_1
6
CONTINUOUS
62
1
10
63.416437826220893
20
239.50020230426748
0
VERTEX
8
Layer_1
6
CONTINUOUS
62
1
10
63.358987021107907
20
239.55627440876484
0
SEQEND
0
POLYLINE
8
Layer_1
6
CONTINUOUS
62
1
66
1
10
0
20
0
70
128
40
0
41
0
0
VERTEX
8
Layer_1
6
CONTINUOUS
62
1
10
62.326688064937002
20
239.17751723784818
0
VERTEX
8
Layer_1
6
CONTINUOUS
62
1
10
62.28769835617819
20
239.55209694001547
0
VERTEX
8
Layer_1
6
CONTINUOUS
62
1
10
62.282128397798374
20
239.92389166298307
0
SEQEND
0
POLYLINE
8
Layer_1
6
CONTINUOUS
62
1
66
1
10
0
20
0
70
128
40
0
41
0
0
VERTEX
8
Layer_1
6
CONTINUOUS
62
1
10
63.843411997022429
20
102.22975586646569
0
VERTEX
8
Layer_1
6
CONTINUOUS
62
1
10
63.736370146299635
20
102.29715258731127
0
VERTEX
8
Layer_1
6
CONTINUOUS
62
1
10
63.259728518776456
20
102.81444177471427
0
VERTEX
8
Layer_1
6
CONTINUOUS
62
1
10
62.985482480584153
20
103.07993241143834
0
VERTEX
8
Layer_1
6
CONTINUOUS
62
1
10
62.691633422707099
20
103.32639177289943
0
VERTEX
8
Layer_1
6
CONTINUOUS
62
1
10
62.381441692597058
20
103.53612338113902
0
VERTEX
8
Layer_1
6
CONTINUOUS
62
1
10
62.221236184033344
20
103.6216861284387
0
VERTEX
8
Layer_1
6
CONTINUOUS
62
1
10
62.058167637705807
20
103.69143075819856
0
VERTEX
8
Layer_1
6
CONTINUOUS
62
1
10
61.892643597045918
20
103.7431452106738
0
VERTEX
8
Layer_1
6
CONTINUOUS
62
1
10
61.725071605485155
20
103.77461742611958
0
VERTEX
8
Layer_1
6
CONTINUOUS
62
1
10
61.555859206454969
20
103.78363534479109
0
VERTEX
8
Layer_1
6
CONTINUOUS
62
1
10
61.385413943386851
20
103.76798690694352
0
VERTEX
8
Layer_1
6
CONTINUOUS
62
1
10
61.198238406322389
20
103.70802699222759
0
VERTEX
8
Layer_1
6
CONTINUOUS
62
1
10
61.025272035770641
20
103.59858518534975
0
VERTEX
8
Layer_1
6
CONTINUOUS
62
1
10
60.887671894872923
20
103.45094433659614
0
VERTEX
8
Layer_1
6
CONTINUOUS
62
1
10
60.838745742775998
20
103.36632516223034
0
VERTEX
8
Layer_1
6
CONTINUOUS
62
1
10
60.806595046770582
20
103.27638729625292
0
VERTEX
8
Layer_1
6
CONTINUOUS
62
1
10
60.802574371920649
20
103.2334775328716
0
VERTEX
8
Layer_1
6
CONTINUOUS
62
1
10
60.818488585729568
20
103.19313252345988
0
SEQEND
0
POLYLINE
8
Layer_1
6
CONTINUOUS
62
1
66
1
10
0
20
0
70
128
40
0
41
0
0
VERTEX
8
Layer_1
6
CONTINUOUS
62
1
10
62.120498072692385
20
101.71613516037863
0
VERTEX
8
Layer_1
6
CONTINUOUS
62
1
10
62.366009918003961
20
101.61027993194529
0
VERTEX
8
Layer_1
6
CONTINUOUS
62
1
10
62.493279642873574
20
101.56794150272589
0
VERTEX
8
Layer_1
6
CONTINUOUS
62
1
10
62.623835162735332
20
101.54208401701685
0
VERTEX
8
Layer_1
6
CONTINUOUS
62
1
10
62.704144550591437
20
101.54733936191546
0
VERTEX
8
Layer_1
6
CONTINUOUS
62
1
10
62.760915138350015
20
101.58059871255837
0
VERTEX
8
Layer_1
6
CONTINUOUS
62
1
10
62.793099532094793
20
101.6363494693904
0
VERTEX
8
Layer_1
6
CONTINUOUS
62
1
10
62.799650337909526
20
101.70907903285632
0
VERTEX
8
Layer_1
6
CONTINUOUS
62
1
10
62.779520161877954
20
101.79327480340095
0
VERTEX
8
Layer_1
6
CONTINUOUS
62
1
10
62.731661610083805
20
101.88342418146908
0
VERTEX
8
Layer_1
6
CONTINUOUS
62
1
10
62.655027288610825
20
101.97401456750551
0
VERTEX
8
Layer_1
6
CONTINUOUS
62
1
10
62.548569803542762
20
102.05953336195503
0
VERTEX
8
Layer_1
6
CONTINUOUS
62
1
10
62.251109845302004
20
102.2596534190763
0
VERTEX
8
Layer_1
6
CONTINUOUS
62
1
10
62.087403626585314
20
102.36012420400296
0
VERTEX
8
Layer_1
6
CONTINUOUS
62
1
10
61.920436364590742
20
102.44666811154326
0
VERTEX
8
Layer_1
6
CONTINUOUS
62
1
10
61.755250396658028
20
102.50863460547444
0
VERTEX
8
Layer_1
6
CONTINUOUS
62
1
10
61.596888060126901
20
102.53537314957373
0
VERTEX
8
Layer_1
6
CONTINUOUS
62
1
10
61.450391692337121
20
102.51623320761838
0
VERTEX
8
Layer_1
6
CONTINUOUS
62
1
10
61.383168977138894
20
102.4861305118006
0
VERTEX
8
Layer_1
6
CONTINUOUS
62
1
10
61.320803630628404
20
102.44056424338562
0
VERTEX
8
Layer_1
6
CONTINUOUS
62
1
10
61.258005799584801
20
102.36137865868302
0
VERTEX
8
Layer_1
6
CONTINUOUS
62
1
10
61.221665431797859
20
102.26575345767786
0
VERTEX
8
Layer_1
6
CONTINUOUS
62
1
10
61.208532932562179
20
102.15843640790942
0
VERTEX
8
Layer_1
6
CONTINUOUS
62
1
10
61.215358707172363
20
102.04417527691697
0
VERTEX
8
Layer_1
6
CONTINUOUS
62
1
10
61.275886699108682
20
101.81381184141728
0
VERTEX
8
Layer_1
6
CONTINUOUS
62
1
10
61.377252649963594
20
101.61264529149311
0
VERTEX
8
Layer_1
6
CONTINUOUS
62
1
10
61.462413948274445
20
101.5228063546347
0
VERTEX
8
Layer_1
6
CONTINUOUS
62
1
10
61.516353072174297
20
101.4920771211646
0
VERTEX
8
Layer_1
6
CONTINUOUS
62
1
10
61.574824218008644
20
101.47622682780366
0
SEQEND
0
POLYLINE
8
Layer_1
6
CONTINUOUS
62
1
66
1
10
0
20
0
70
128
40
0
41
0
0
VERTEX
8
Layer_1
6
CONTINUOUS
62
1
10
62.120498072692385
20
101.71613516037863
0
VERTEX
8
Layer_1
6
CONTINUOUS
62
1
10
62.225751973523032
20
101.62205346128663
0
VERTEX
8
Layer_1
6
CONTINUOUS
62
1
10
62.324905264181453
20
101.54546507811773
0
VERTEX
8
Layer_1
6
CONTINUOUS
62
1
10
62.426263594664277
20
101.48563499759678
0
SEQEND
0
POLYLINE
8
Layer_1
6
CONTINUOUS
62
1
66
1
10
0
20
0
70
128
40
0
41
0
0
VERTEX
8
Layer_1
6
CONTINUOUS
62
1
10
63.831518457799177
20
100.35082440801224
0
VERTEX
8
Layer_1
6
CONTINUOUS
62
1
10
63.800129413481379
20
100.37895989001574
0
VERTEX
8
Layer_1
6
CONTINUOUS
62
1
10
63.764121736971703
20
100.37857599895182
0
VERTEX
8
Layer_1
6
CONTINUOUS
62
1
10
63.321791039717425
20
100.20044004435896
0
VERTEX
8
Layer_1
6
CONTINUOUS
62
1
10
63.103491263772156
20
100.13674601108659
0
VERTEX
8
Layer_1
6
CONTINUOUS
62
1
10
62.887197702561011
20
100.09252190585676
0
VERTEX
8
Layer_1
6
CONTINUOUS
62
1
10
62.672982230793643
20
100.06968320268929
0
VERTEX
8
Layer_1
6
CONTINUOUS
62
1
10
62.460916723179722
20
100.07014537560403
0
VERTEX
8
Layer_1
6
CONTINUOUS
62
1
10
62.251073054428893
20
100.09582389862084
0
VERTEX
8
Layer_1
6
CONTINUOUS
62
1
10
62.04352309925082
20
100.14863424575955
0
VERTEX
8
Layer_1
6
CONTINUOUS
62
1
10
61.840391422797239
20
100.2267336485462
0
VERTEX
8
Layer_1
6
CONTINUOUS
62
1
10
61.640089712390463
20
100.32814723851493
0
VERTEX
8
Layer_1
6
CONTINUOUS
62
1
10
61.448133794987164
20
100.45101614748424
0
VERTEX
8
Layer_1
6
CONTINUOUS
62
1
10
61.270039497544062
20
100.59348150727264
0
VERTEX
8
Layer_1
6
CONTINUOUS
62
1
10
61.111322647017829
20
100.75368444969858
0
VERTEX
8
Layer_1
6
CONTINUOUS
62
1
10
60.977499070365177
20
100.92976610658056
0
VERTEX
8
Layer_1
6
CONTINUOUS
62
1
10
60.874084594542779
20
101.11986760973707
0
VERTEX
8
Layer_1
6
CONTINUOUS
62
1
10
60.80659504650734
20
101.32213009098658
0
VERTEX
8
Layer_1
6
CONTINUOUS
62
1
10
60.804848900525705
20
101.38031702327829
0
VERTEX
8
Layer_1
6
CONTINUOUS
62
1
10
60.818488585493071
20
101.43710096769698
0
SEQEND
0
POLYLINE
8
Layer_1
6
CONTINUOUS
62
1
66
1
10
0
20
0
70
128
40
0
41
0
0
VERTEX
8
Layer_1
6
CONTINUOUS
62
1
10
62.36643103219177
20
98.300577217082463
0
VERTEX
8
Layer_1
6
CONTINUOUS
62
1
10
62.501514812993094
20
98.297779906569076
0
VERTEX
8
Layer_1
6
CONTINUOUS
62
1
10
62.56419592703876
20
98.283552775643471
0
VERTEX
8
Layer_1
6
CONTINUOUS
62
1
10
62.618075769027911
20
98.256169322311735
0
VERTEX
8
Layer_1
6
CONTINUOUS
62
1
10
62.834567656118715
20
98.077732129002541
0
VERTEX
8
Layer_1
6
CONTINUOUS
62
1
10
63.016522336371402
20
97.881488122634138
0
VERTEX
8
Layer_1
6
CONTINUOUS
62
1
10
63.162082680292855
20
97.665347873977339
0
VERTEX
8
Layer_1
6
CONTINUOUS
62
1
10
63.269391558389941
20
97.427221953802956
0
VERTEX
8
Layer_1
6
CONTINUOUS
62
1
10
63.309597664453449
20
97.263776230113336
0
VERTEX
8
Layer_1
6
CONTINUOUS
62
1
10
63.308865242560664
20
97.131786098534477
0
VERTEX
8
Layer_1
6
CONTINUOUS
62
1
10
63.273901735145685
20
97.03032639459181
0
VERTEX
8
Layer_1
6
CONTINUOUS
62
1
10
63.211414584642583
20
96.958471953810758
0
VERTEX
8
Layer_1
6
CONTINUOUS
62
1
10
63.128111233485448
20
96.915297611716724
0
VERTEX
8
Layer_1
6
CONTINUOUS
62
1
10
63.030699124108374
20
96.899878203835101
0
VERTEX
8
Layer_1
6
CONTINUOUS
62
1
10
62.925885698945436
20
96.911288565691336
0
VERTEX
8
Layer_1
6
CONTINUOUS
62
1
10
62.820378400430712
20
96.948603532810807
0
VERTEX
8
Layer_1
6
CONTINUOUS
62
1
10
62.679269595405302
20
97.031425318131568
0
VERTEX
8
Layer_1
6
CONTINUOUS
62
1
10
62.539370379105122
20
97.140456254081755
0
VERTEX
8
Layer_1
6
CONTINUOUS
62
1
10
62.26658951510116
20
97.418819568032589
0
VERTEX
8
Layer_1
6
CONTINUOUS
62
1
10
62.008813413260228
20
97.747041454987837
0
VERTEX
8
Layer_1
6
CONTINUOUS
62
1
10
61.77281967842373
20
98.088469895272041
0
VERTEX
8
Layer_1
6
CONTINUOUS
62
1
10
61.393289729129705
20
98.664338357125501
0
VERTEX
8
Layer_1
6
CONTINUOUS
62
1
10
61.263308724355014
20
98.825474339343856
0
VERTEX
8
Layer_1
6
CONTINUOUS
62
1
10
61.216229416553858
20
98.858307509667924
0
VERTEX
8
Layer_1
6
CONTINUOUS
62
1
10
61.182220505950397
20
98.853208796189335
0
VERTEX
8
Layer_1
6
CONTINUOUS
62
1
10
61.169268203310111
20
98.788524380072673
0
VERTEX
8
Layer_1
6
CONTINUOUS
62
1
10
61.185921163819437
20
98.662316526452003
0
VERTEX
8
Layer_1
6
CONTINUOUS
62
1
10
61.26363497955704
20
98.277139717230995
0
VERTEX
8
Layer_1
6
CONTINUOUS
62
1
10
61.302491887420388
20
98.044075366896806
0
VERTEX
8
Layer_1
6
CONTINUOUS
62
1
10
61.326546163703483
20
97.801296789590936
0
VERTEX
8
Layer_1
6
CONTINUOUS
62
1
10
61.324695834723855
20
97.561756287946451
0
VERTEX
8
Layer_1
6
CONTINUOUS
62
1
10
61.285838926799045
20
97.338406164596435
0
SEQEND
0
POLYLINE
8
Layer_1
6
CONTINUOUS
62
1
66
1
10
0
20
0
70
129
40
0
41
0
0
VERTEX
8
Layer_1
6
CONTINUOUS
62
1
10
63.391457515219287
20
95.285920929864872
0
VERTEX
8
Layer_1
6
CONTINUOUS
62
1
10
63.442167894488762
20
95.425652155616589
0
VERTEX
8
Layer_1
6
CONTINUOUS
62
1
10
63.441448775767327
20
95.578078280505309
0
VERTEX
8
Layer_1
6
CONTINUOUS
62
1
10
63.395091451472943
20
95.738688368873397
0
VERTEX
8
Layer_1
6
CONTINUOUS
62
1
10
63.308887214023606
20
95.902971485063233
0
VERTEX
8
Layer_1
6
CONTINUOUS
62
1
10
63.188627355837284
20
96.06641669341721
0
VERTEX
8
Layer_1
6
CONTINUOUS
62
1
10
63.040103169331957
20
96.224513058277665
0
VERTEX
8
Layer_1
6
CONTINUOUS
62
1
10
62.869105946925607
20
96.372749643986964
0
VERTEX
8
Layer_1
6
CONTINUOUS
62
1
10
62.681426981036203
20
96.506615514887514
0
VERTEX
8
Layer_1
6
CONTINUOUS
62
1
10
62.482857564081726
20
96.621599735321666
0
VERTEX
8
Layer_1
6
CONTINUOUS
62
1
10
62.279188988480158
20
96.713191369631829
0
VERTEX
8
Layer_1
6
CONTINUOUS
62
1
10
62.076212546649472
20
96.776879482160325
0
VERTEX
8
Layer_1
6
CONTINUOUS
62
1
10
61.879719531007652
20
96.808153137249576
0
VERTEX
8
Layer_1
6
CONTINUOUS
62
1
10
61.695501233972664
20
96.802501399241919
0
VERTEX
8
Layer_1
6
CONTINUOUS
62
1
10
61.52934894796249
20
96.755413332479733
0
VERTEX
8
Layer_1
6
CONTINUOUS
62
1
10
61.387053965395111
20
96.662378001305399
0
VERTEX
8
Layer_1
6
CONTINUOUS
62
1
10
61.274407578688511
20
96.518884470061309
0
VERTEX
8
Layer_1
6
CONTINUOUS
62
1
10
61.225825464484785
20
96.377158586163986
0
VERTEX
8
Layer_1
6
CONTINUOUS
62
1
10
61.226996820451149
20
96.222384744457443
0
VERTEX
8
Layer_1
6
CONTINUOUS
62
1
10
61.272428695415044
20
96.059206526261789
0
VERTEX
8
Layer_1
6
CONTINUOUS
62
1
10
61.356628138203959
20
95.892267512897178
0
VERTEX
8
Layer_1
6
CONTINUOUS
62
1
10
61.474102197645337
20
95.726211285683689
0
VERTEX
8
Layer_1
6
CONTINUOUS
62
1
10
61.619357922566664
20
95.565681425941449
0
VERTEX
8
Layer_1
6
CONTINUOUS
62
1
10
61.786902361795406
20
95.415321514990595
0
VERTEX
8
Layer_1
6
CONTINUOUS
62
1
10
61.971242564159006
20
95.279775134151251
0
VERTEX
8
Layer_1
6
CONTINUOUS
62
1
10
62.166885578484951
20
95.163685864743528
0
VERTEX
8
Layer_1
6
CONTINUOUS
62
1
10
62.3683384536007
20
95.071697288087535
0
VERTEX
8
Layer_1
6
CONTINUOUS
62
1
10
62.570108238333731
20
95.008452985503396
0
VERTEX
8
Layer_1
6
CONTINUOUS
62
1
10
62.766701981511503
20
94.978596538311251
0
VERTEX
8
Layer_1
6
CONTINUOUS
62
1
10
62.952626731961473
20
94.986771527831195
0
VERTEX
8
Layer_1
6
CONTINUOUS
62
1
10
63.122389538511115
20
95.03762153538338
0
VERTEX
8
Layer_1
6
CONTINUOUS
62
1
10
63.2704974499879
20
95.135790142287888
0
VERTEX
8
Layer_1
6
CONTINUOUS
62
1
10
63.391457515219287
20
95.285920929864872
0
SEQEND
0
POLYLINE
8
Layer_1
6
CONTINUOUS
62
1
66
1
10
0
20
0
70
128
40
0
41
0
0
VERTEX
8
Layer_1
6
CONTINUOUS
62
1
10
62.687154715906047
20
94.616034016133725
0
VERTEX
8
Layer_1
6
CONTINUOUS
62
1
10
62.789539584295575
20
94.38204450131731
0
VERTEX
8
Layer_1
6
CONTINUOUS
62
1
10
62.899325768480864
20
94.194775792420941
0
VERTEX
8
Layer_1
6
CONTINUOUS
62
1
10
62.986908005304841
20
94.060241458527557
0
VERTEX
8
Layer_1
6
CONTINUOUS
62
1
10
63.022681031610432
20
93.984455068720109
0
VERTEX
8
Layer_1
6
CONTINUOUS
62
1
10
62.988013483134168
20
93.988502533733353
0
VERTEX
8
Layer_1
6
CONTINUOUS
62
1
10
62.899199630104988
20
94.032025985070618
0
VERTEX
8
Layer_1
6
CONTINUOUS
62
1
10
62.562878076501818
20
94.207317963878907
0
VERTEX
8
Layer_1
6
CONTINUOUS
62
1
10
62.021206503028935
20
94.449965239468483
0
VERTEX
8
Layer_1
6
CONTINUOUS
62
1
10
61.675705125162608
20
94.577682811782353
0
VERTEX
8
Layer_1
6
CONTINUOUS
62
1
10
61.281675041914355
20
94.69960204616288
0
SEQEND
0
POLYLINE
8
Layer_1
6
CONTINUOUS
62
1
66
1
10
0
20
0
70
128
40
0
41
0
0
VERTEX
8
Layer_1
6
CONTINUOUS
62
1
10
61.152615242298907
20
95.188402437393066
0
VERTEX
8
Layer_1
6
CONTINUOUS
62
1
10
61.22246516003149
20
94.961351656133658
0
VERTEX
8
Layer_1
6
CONTINUOUS
62
1
10
61.274736952764513
20
94.7375389505345
0
VERTEX
8
Layer_1
6
CONTINUOUS
62
1
10
61.306655127076596
20
94.514651409411783
0
VERTEX
8
Layer_1
6
CONTINUOUS
62
1
10
61.315444189546383
20
94.290376121581659
0
SEQEND
0
POLYLINE
8
Layer_1
6
CONTINUOUS
62
1
66
1
10
0
20
0
70
129
40
0
41
0
0
VERTEX
8
Layer_1
6
CONTINUOUS
62
1
10
63.391457514806234
20
92.219223132309324
0
VERTEX
8
Layer_1
6
CONTINUOUS
62
1
10
63.442167894075716
20
92.358954358061041
0
VERTEX
8
Layer_1
6
CONTINUOUS
62
1
10
63.441448775354274
20
92.511380482949761
0
VERTEX
8
Layer_1
6
CONTINUOUS
62
1
10
63.395091451059905
20
92.671990571317849
0
VERTEX
8
Layer_1
6
CONTINUOUS
62
1
10
63.308887213610568
20
92.836273687507685
0
VERTEX
8
Layer_1
6
CONTINUOUS
62
1
10
63.188627355424245
20
92.999718895861662
0
VERTEX
8
Layer_1
6
CONTINUOUS
62
1
10
63.040103168918918
20
93.157815260722117
0
VERTEX
8
Layer_1
6
CONTINUOUS
62
1
10
62.869105946512569
20
93.306051846431416
0
VERTEX
8
Layer_1
6
CONTINUOUS
62
1
10
62.681426980623165
20
93.439917717331966
0
VERTEX
8
Layer_1
6
CONTINUOUS
62
1
10
62.482857563668688
20
93.554901937766118
0
VERTEX
8
Layer_1
6
CONTINUOUS
62
1
10
62.279188988067119
20
93.646493572076281
0
VERTEX
8
Layer_1
6
CONTINUOUS
62
1
10
62.076212546236434
20
93.710181684604777
0
VERTEX
8
Layer_1
6
CONTINUOUS
62
1
10
61.879719530594613
20
93.741455339694028
0
VERTEX
8
Layer_1
6
CONTINUOUS
62
1
10
61.695501233559625
20
93.735803601686371
0
VERTEX
8
Layer_1
6
CONTINUOUS
62
1
10
61.529348947549458
20
93.688715534924185
0
VERTEX
8
Layer_1
6
CONTINUOUS
62
1
10
61.387053964982087
20
93.595680203749851
0
VERTEX
8
Layer_1
6
CONTINUOUS
62
1
10
61.274407578275486
20
93.452186672505761
0
VERTEX
8
Layer_1
6
CONTINUOUS
62
1
10
61.225825464071761
20
93.310460788608438
0
VERTEX
8
Layer_1
6
CONTINUOUS
62
1
10
61.226996820038124
20
93.155686946901895
0
VERTEX
8
Layer_1
6
CONTINUOUS
62
1
10
61.27242869500202
20
92.992508728706241
0
VERTEX
8
Layer_1
6
CONTINUOUS
62
1
10
61.356628137790928
20
92.825569715341629
0
VERTEX
8
Layer_1
6
CONTINUOUS
62
1
10
61.474102197232313
20
92.659513488128141
0
VERTEX
8
Layer_1
6
CONTINUOUS
62
1
10
61.619357922153633
20
92.498983628385901
0
VERTEX
8
Layer_1
6
CONTINUOUS
62
1
10
61.786902361382367
20
92.348623717435046
0
VERTEX
8
Layer_1
6
CONTINUOUS
62
1
10
61.971242563745967
20
92.213077336595703
0
VERTEX
8
Layer_1
6
CONTINUOUS
62
1
10
62.166885578071913
20
92.096988067187979
0
VERTEX
8
Layer_1
6
CONTINUOUS
62
1
10
62.368338453187661
20
92.004999490531986
0
VERTEX
8
Layer_1
6
CONTINUOUS
62
1
10
62.570108237920685
20
91.941755187947848
0
VERTEX
8
Layer_1
6
CONTINUOUS
62
1
10
62.76670198109845
20
91.911898740755703
0
VERTEX
8
Layer_1
6
CONTINUOUS
62
1
10
62.95262673154842
20
91.920073730275647
0
VERTEX
8
Layer_1
6
CONTINUOUS
62
1
10
63.122389538098062
20
91.970923737827832
0
VERTEX
8
Layer_1
6
CONTINUOUS
62
1
10
63.270497449574847
20
92.06909234473234
0
VERTEX
8
Layer_1
6
CONTINUOUS
62
1
10
63.391457514806234
20
92.219223132309324
0
SEQEND
0
POLYLINE
8
Layer_1
6
CONTINUOUS
62
1
66
1
10
0
20
0
70
128
40
0
41
0
0
VERTEX
8
Layer_1
6
CONTINUOUS
62
1
10
63.566556505838605
20
89.744210734066968
0
VERTEX
8
Layer_1
6
CONTINUOUS
62
1
10
63.547439499575219
20
89.815035900306157
0
VERTEX
8
Layer_1
6
CONTINUOUS
62
1
10
63.49254334795981
20
89.862631786708533
0
VERTEX
8
Layer_1
6
CONTINUOUS
62
1
10
62.921408479571497
20
90.105641655206483
0
VERTEX
8
Layer_1
6
CONTINUOUS
62
1
10
62.35397426907592
20
90.333848892125019
0
VERTEX
8
Layer_1
6
CONTINUOUS
62
1
10
61.777288413840509
20
90.539852181676366
0
VERTEX
8
Layer_1
6
CONTINUOUS
62
1
10
61.178398611232694
20
90.71625020807285
0
SEQEND
0
POLYLINE
8
Layer_1
6
CONTINUOUS
62
1
66
1
10
0
20
0
70
129
40
0
41
0
0
VERTEX
8
Layer_1
6
CONTINUOUS
62
1
10
62.070126370967387
20
90.439178690247047
0
VERTEX
8
Layer_1
6
CONTINUOUS
62
1
10
61.972913808462934
20
90.312748464218927
0
VERTEX
8
Layer_1
6
CONTINUOUS
62
1
10
61.94272153090612
20
90.245598057678365
0
VERTEX
8
Layer_1
6
CONTINUOUS
62
1
10
61.928398611159565
20
90.173487050077057
0
VERTEX
8
Layer_1
6
CONTINUOUS
62
1
10
61.933191118433967
20
89.917267354047624
0
VERTEX
8
Layer_1
6
CONTINUOUS
62
1
10
61.981455367560351
20
89.653453058538489
0
VERTEX
8
Layer_1
6
CONTINUOUS
62
1
10
62.069450354990487
20
89.392046015727303
0
VERTEX
8
Layer_1
6
CONTINUOUS
62
1
10
62.193435077176133
20
89.143048077791676
0
VERTEX
8
Layer_1
6
CONTINUOUS
62
1
10
62.349668530569062
20
88.916461096909231
0
VERTEX
8
Layer_1
6
CONTINUOUS
62
1
10
62.534409711621045
20
88.722286925257592
0
VERTEX
8
Layer_1
6
CONTINUOUS
62
1
10
62.743917616783847
20
88.570527415014382
0
VERTEX
8
Layer_1
6
CONTINUOUS
62
1
10
62.85679002729799
20
88.513678736726447
0
VERTEX
8
Layer_1
6
CONTINUOUS
62
1
10
62.974451242509247
20
88.471184418357225
0
VERTEX
8
Layer_1
6
CONTINUOUS
62
1
10
63.158386709068552
20
88.424534686244655
0
VERTEX
8
Layer_1
6
CONTINUOUS
62
1
10
63.317003026010937
20
88.398202433319312
0
VERTEX
8
Layer_1
6
CONTINUOUS
62
1
10
63.451695167894151
20
88.390532482514786
0
VERTEX
8
Layer_1
6
CONTINUOUS
62
1
10
63.563858109275962
20
88.399869656764679
0
VERTEX
8
Layer_1
6
CONTINUOUS
62
1
10
63.654886824714119
20
88.424558779002609
0
VERTEX
8
Layer_1
6
CONTINUOUS
62
1
10
63.726176288766368
20
88.462944672162209
0
VERTEX
8
Layer_1
6
CONTINUOUS
62
1
10
63.779121475990472
20
88.513372159177081
0
VERTEX
8
Layer_1
6
CONTINUOUS
62
1
10
63.815117360944178
20
88.574186062980829
0
VERTEX
8
Layer_1
6
CONTINUOUS
62
1
10
63.835558918185242
20
88.643731206507056
0
VERTEX
8
Layer_1
6
CONTINUOUS
62
1
10
63.841841122271433
20
88.720352412689408
0
VERTEX
8
Layer_1
6
CONTINUOUS
62
1
10
63.817507369210148
20
88.888202304756831
0
VERTEX
8
Layer_1
6
CONTINUOUS
62
1
10
63.753275898222377
20
89.064494322651996
0
VERTEX
8
Layer_1
6
CONTINUOUS
62
1
10
63.660306505770137
20
89.2359870498438
0
VERTEX
8
Layer_1
6
CONTINUOUS
62
1
10
63.548031949880979
20
89.380298296380147
0
VERTEX
8
Layer_1
6
CONTINUOUS
62
1
10
63.391530868649539
20
89.534326028273227
0
VERTEX
8
Layer_1
6
CONTINUOUS
62
1
10
62.984874774580831
20
89.855576667995621
0
VERTEX
8
Layer_1
6
CONTINUOUS
62
1
10
62.518389512406088
20
90.167830408742915
0
VERTEX
8
Layer_1
6
CONTINUOUS
62
1
10
62.070126370967387
20
90.439178690247047
0
SEQEND
0
POLYLINE
8
Layer_1
6
CONTINUOUS
62
1
66
1
10
0
20
0
70
128
40
0
41
0
0
VERTEX
8
Layer_1
6
CONTINUOUS
62
1
10
61.943201242736535
20
90.158684418496108
0
VERTEX
8
Layer_1
6
CONTINUOUS
62
1
10
61.738123117720654
20
90.040725948129008
0
VERTEX
8
Layer_1
6
CONTINUOUS
62
1
10
61.534895321650012
20
89.907039681709009
0
VERTEX
8
Layer_1
6
CONTINUOUS
62
1
10
61.363123117682143
20
89.754850125811089
0
VERTEX
8
Layer_1
6
CONTINUOUS
62
1
10
61.298284507473483
20
89.670949272612589
0
VERTEX
8
Layer_1
6
CONTINUOUS
62
1
10
61.252411768974582
20
89.581381787010216
0
VERTEX
8
Layer_1
6
CONTINUOUS
62
1
10
61.245580457186847
20
89.533219130935649
0
VERTEX
8
Layer_1
6
CONTINUOUS
62
1
10
61.258263833927892
20
89.484431282778587
0
VERTEX
8
Layer_1
6
CONTINUOUS
62
1
10
61.326424926844027
20
89.39388178700024
0
SEQEND
0
POLYLINE
8
Layer_1
6
CONTINUOUS
62
1
66
1
10
0
20
0
70
129
40
0
41
0
0
VERTEX
8
Layer_1
6
CONTINUOUS
62
1
10
61.203046343824923
20
88.779626553946756
0
VERTEX
8
Layer_1
6
CONTINUOUS
62
1
10
61.185670626729561
20
88.753779787623046
0
VERTEX
8
Layer_1
6
CONTINUOUS
62
1
10
61.185701599481163
20
88.717309365391941
0
VERTEX
8
Layer_1
6
CONTINUOUS
62
1
10
61.223860036999625
20
88.632939573316293
0
VERTEX
8
Layer_1
6
CONTINUOUS
62
1
10
61.289274501329047
20
88.567401217937345
0
VERTEX
8
Layer_1
6
CONTINUOUS
62
1
10
61.323375507594349
20
88.55447009157713
0
VERTEX
8
Layer_1
6
CONTINUOUS
62
1
10
61.353697837418167
20
88.561578339472675
0
VERTEX
8
Layer_1
6
CONTINUOUS
62
1
10
61.371073554511291
20
88.587425105799582
0
VERTEX
8
Layer_1
6
CONTINUOUS
62
1
10
61.371042581759362
20
88.623895528031142
0
VERTEX
8
Layer_1
6
CONTINUOUS
62
1
10
61.332884144243422
20
88.708265320103138
0
VERTEX
8
Layer_1
6
CONTINUOUS
62
1
10
61.267469679916545
20
88.773803675478405
0
VERTEX
8
Layer_1
6
CONTINUOUS
62
1
10
61.233368673650936
20
88.786734801839089
0
VERTEX
8
Layer_1
6
CONTINUOUS
62
1
10
61.203046343824923
20
88.779626553946756
0
SEQEND
0
POLYLINE
8
Layer_1
6
CONTINUOUS
62
1
66
1
10
0
20
0
70
128
40
0
41
0
0
VERTEX
8
Layer_1
6
CONTINUOUS
62
1
10
61.553398610670172
20
86.540064717479524
0
VERTEX
8
Layer_1
6
CONTINUOUS
62
1
10
61.503531713292389
20
86.614121762903636
0
VERTEX
8
Layer_1
6
CONTINUOUS
62
1
10
61.457837980809941
20
86.658191619307161
0
VERTEX
8
Layer_1
6
CONTINUOUS
62
1
10
61.416750221156178
20
86.671569735329001
0
VERTEX
8
Layer_1
6
CONTINUOUS
62
1
10
61.380701242264422
20
86.653551559608033
0
VERTEX
8
Layer_1
6
CONTINUOUS
62
1
10
61.287492766280359
20
86.528133419438007
0
VERTEX
8
Layer_1
6
CONTINUOUS
62
1
10
61.22413449379853
20
86.378048974679814
0
VERTEX
8
Layer_1
6
CONTINUOUS
62
1
10
61.187518934295383
20
86.209493978479117
0
VERTEX
8
Layer_1
6
CONTINUOUS
62
1
10
61.174538597247384
20
86.028664183981562
0
VERTEX
8
Layer_1
6
CONTINUOUS
62
1
10
61.182085992130958
20
85.841755344332739
0
VERTEX
8
Layer_1
6
CONTINUOUS
62
1
10
61.207053628422557
20
85.654963212678311
0
VERTEX
8
Layer_1
6
CONTINUOUS
62
1
10
61.296819663135608
20
85.306512085935154
0
VERTEX
8
Layer_1
6
CONTINUOUS
62
1
10
61.345053498441018
20
85.19275540418522
0
VERTEX
8
Layer_1
6
CONTINUOUS
62
1
10
61.413467483828313
20
85.076454520129943
0
VERTEX
8
Layer_1
6
CONTINUOUS
62
1
10
61.498650075302876
20
84.973105938703981
0
VERTEX
8
Layer_1
6
CONTINUOUS
62
1
10
61.597189728870099
20
84.898206164842009
0
VERTEX
8
Layer_1
6
CONTINUOUS
62
1
10
61.705674900535342
20
84.867251703478701
0
VERTEX
8
Layer_1
6
CONTINUOUS
62
1
10
61.762580948156398
20
84.873096622776131
0
VERTEX
8
Layer_1
6
CONTINUOUS
62
1
10
61.82069404630397
20
84.895739059548745
0
VERTEX
8
Layer_1
6
CONTINUOUS
62
1
10
61.879587751978747
20
84.937116076913341
0
VERTEX
8
Layer_1
6
CONTINUOUS
62
1
10
61.938835622181386
20
84.999164737986774
0
VERTEX
8
Layer_1
6
CONTINUOUS
62
1
10
62.056688084172947
20
85.19302524372749
0
VERTEX
8
Layer_1
6
CONTINUOUS
62
1
10
62.118032118091577
20
85.352109364169223
0
VERTEX
8
Layer_1
6
CONTINUOUS
62
1
10
62.166896311807157
20
85.530801849986119
0
VERTEX
8
Layer_1
6
CONTINUOUS
62
1
10
62.250925711845476
20
85.904648433956169
0
VERTEX
8
Layer_1
6
CONTINUOUS
62
1
10
62.297961184776362
20
86.078620790214671
0
VERTEX
8
Layer_1
6
CONTINUOUS
62
1
10
62.35625735072049
20
86.229838028059092
0
VERTEX
8
Layer_1
6
CONTINUOUS
62
1
10
62.431749342981938
20
86.347709276542091
0
VERTEX
8
Layer_1
6
CONTINUOUS
62
1
10
62.530372294864776
20
86.421643664716342
0
VERTEX
8
Layer_1
6
CONTINUOUS
62
1
10
62.612665985907199
20
86.435218956233697
0
VERTEX
8
Layer_1
6
CONTINUOUS
62
1
10
62.695598925423532
20
86.410607046738988
0
VERTEX
8
Layer_1
6
CONTINUOUS
62
1
10
62.777492334064185
20
86.35527001012909
0
VERTEX
8
Layer_1
6
CONTINUOUS
62
1
10
62.856667432479583
20
86.276669920300918
0
VERTEX
8
Layer_1
6
CONTINUOUS
62
1
10
63.000147581236263
20
86.079528876577271
0
VERTEX
8
Layer_1
6
CONTINUOUS
62
1
10
63.112609136896907
20
85.878880506743187
0
VERTEX
8
Layer_1
6
CONTINUOUS
62
1
10
63.182898154495696
20
85.718147721642623
0
VERTEX
8
Layer_1
6
CONTINUOUS
62
1
10
63.236324893843417
20
85.546999927911571
0
VERTEX
8
Layer_1
6
CONTINUOUS
62
1
10
63.270926762224974
20
85.369816512699231
0
VERTEX
8
Layer_1
6
CONTINUOUS
62
1
10
63.284741166925272
20
85.190976863154788
0
VERTEX
8
Layer_1
6
CONTINUOUS
62
1
10
63.275805515229237
20
85.014860366427484
0
VERTEX
8
Layer_1
6
CONTINUOUS
62
1
10
63.242157214421766
20
84.845846409666564
0
VERTEX
8
Layer_1
6
CONTINUOUS
62
1
10
63.181833671787778
20
84.688314380021183
0
VERTEX
8
Layer_1
6
CONTINUOUS
62
1
10
63.092872294612192
20
84.546643664640584
0
VERTEX
8
Layer_1
6
CONTINUOUS
62
1
10
63.004673281443104
20
84.463378862020875
0
VERTEX
8
Layer_1
6
CONTINUOUS
62
1
10
62.890569663015299
20
84.41341998045732
0
SEQEND
0
POLYLINE
8
Layer_1
6
CONTINUOUS
62
1
66
1
10
0
20
0
70
128
40
0
41
0
0
VERTEX
8
Layer_1
6
CONTINUOUS
62
1
10
62.355366775657302
20
84.164269859445596
0
VERTEX
8
Layer_1
6
CONTINUOUS
62
1
10
62.283544553241086
20
84.17145208169697
0
VERTEX
8
Layer_1
6
CONTINUOUS
62
1
10
61.622759228484227
20
84.426079222420071
0
VERTEX
8
Layer_1
6
CONTINUOUS
62
1
10
61.340208259418105
20
84.523603850221832
0
VERTEX
8
Layer_1
6
CONTINUOUS
62
1
10
61.251528751666193
20
84.544075192496621
0
VERTEX
8
Layer_1
6
CONTINUOUS
62
1
10
61.213393439274313
20
84.537745416168775
0
VERTEX
8
Layer_1
6
CONTINUOUS
62
1
10
61.249528453825405
20
84.490868994149139
0
VERTEX
8
Layer_1
6
CONTINUOUS
62
1
10
61.36235162351678
20
84.409882067773879
0
VERTEX
8
Layer_1
6
CONTINUOUS
62
1
10
61.714577221020626
20
84.189539158022995
0
VERTEX
8
Layer_1
6
CONTINUOUS
62
1
10
62.063099817186348
20
83.964641599049003
0
VERTEX
8
Layer_1
6
CONTINUOUS
62
1
10
62.171294235205067
20
83.87796136114487
0
VERTEX
8
Layer_1
6
CONTINUOUS
62
1
10
62.197556029649974
20
83.845871771220772
0
VERTEX
8
Layer_1
6
CONTINUOUS
62
1
10
62.200948997414429
20
83.823114302984749
0
VERTEX
8
Layer_1
6
CONTINUOUS
62
1
10
62.155300496232847
20
83.820891665926752
0
VERTEX
8
Layer_1
6
CONTINUOUS
62
1
10
62.052894769692145
20
83.850095136888882
0
VERTEX
8
Layer_1
6
CONTINUOUS
62
1
10
61.751501846835794
20
83.959777037724081
0
VERTEX
8
Layer_1
6
CONTINUOUS
62
1
10
61.444150641450165
20
84.066153275191567
0
VERTEX
8
Layer_1
6
CONTINUOUS
62
1
10
61.334297061747876
20
84.091224666944044
0
VERTEX
8
Layer_1
6
CONTINUOUS
62
1
10
61.278221566140076
20
84.083217118992565
0
VERTEX
8
Layer_1
6
CONTINUOUS
62
1
10
61.280095541133292
20
84.060157016384395
0
VERTEX
8
Layer_1
6
CONTINUOUS
62
1
10
61.310556069535664
20
84.025650268731013
0
VERTEX
8
Layer_1
6
CONTINUOUS
62
1
10
61.440967628170583
20
83.928563687162068
0
VERTEX
8
Layer_1
6
CONTINUOUS
62
1
10
61.865868643979923
20
83.665966121089511
0
VERTEX
8
Layer_1
6
CONTINUOUS
62
1
10
62.292618079211174
20
83.395694002749892
0
VERTEX
8
Layer_1
6
CONTINUOUS
62
1
10
62.425340162123469
20
83.28901423084713
0
VERTEX
8
Layer_1
6
CONTINUOUS
62
1
10
62.457302531306141
20
83.248271909476784
0
VERTEX
8
Layer_1
6
CONTINUOUS
62
1
10
62.460909399507386
20
83.218016914118252
0
VERTEX
8
Layer_1
6
CONTINUOUS
62
1
10
62.440659908997795
20
83.203401798747421
0
VERTEX
8
Layer_1
6
CONTINUOUS
62
1
10
62.403262939738674
20
83.20325262165386
0
VERTEX
8
Layer_1
6
CONTINUOUS
62
1
10
62.285232792393707
20
83.237691847224156
0
VERTEX
8
Layer_1
6
CONTINUOUS
62
1
10
61.933671254349662
20
83.384898971874634
0
VERTEX
8
Layer_1
6
CONTINUOUS
62
1
10
61.732964773337898
20
83.463025930657722
0
VERTEX
8
Layer_1
6
CONTINUOUS
62
1
10
61.537524424124506
20
83.521074526881321
0
VERTEX
8
Layer_1
6
CONTINUOUS
62
1
10
61.363762661553153
20
83.541724290396886
0
VERTEX
8
Layer_1
6
CONTINUOUS
62
1
10
61.290140142396879
20
83.532611962967721
0
VERTEX
8
Layer_1
6
CONTINUOUS
62
1
10
61.228091940467493
20
83.507654751055853
0
VERTEX
8
Layer_1
6
CONTINUOUS
62
1
10
61.20162812378625
20
83.479319779759436
0
VERTEX
8
Layer_1
6
CONTINUOUS
62
1
10
61.189865585485961
20
83.439051458532546
0
VERTEX
8
Layer_1
6
CONTINUOUS
62
1
10
61.201526773701865
20
83.34041681445332
0
VERTEX
8
Layer_1
6
CONTINUOUS
62
1
10
61.245240364462433
20
83.247154915150219
0
VERTEX
8
Layer_1
6
CONTINUOUS
62
1
10
61.303171217114908
20
83.194669856955272
0
SEQEND
0
POLYLINE
8
Layer_1
6
CONTINUOUS
62
1
66
1
10
0
20
0
70
129
40
0
41
0
0
VERTEX
8
Layer_1
6
CONTINUOUS
62
1
10
62.518921961743359
20
81.862476867589692
0
VERTEX
8
Layer_1
6
CONTINUOUS
62
1
10
62.573243917490274
20
81.970059608046853
0
VERTEX
8
Layer_1
6
CONTINUOUS
62
1
10
62.592093491639787
20
82.083415990912869
0
VERTEX
8
Layer_1
6
CONTINUOUS
62
1
10
62.579363025009627
20
82.200096450796437
0
VERTEX
8
Layer_1
6
CONTINUOUS
62
1
10
62.53894485841758
20
82.31765142230617
0
VERTEX
8
Layer_1
6
CONTINUOUS
62
1
10
62.47473133268138
20
82.433631340050738
0
VERTEX
8
Layer_1
6
CONTINUOUS
62
1
10
62.390614788618784
20
82.545586638638795
0
VERTEX
8
Layer_1
6
CONTINUOUS
62
1
10
62.290487567047556
20
82.651067752679012
0
VERTEX
8
Layer_1
6
CONTINUOUS
62
1
10
62.178242008785439
20
82.74762511678
0
VERTEX
8
Layer_1
6
CONTINUOUS
62
1
10
61.93296524545957
20
82.904170333598998
0
VERTEX
8
Layer_1
6
CONTINUOUS
62
1
10
61.807718722031325
20
82.959259055534289
0
VERTEX
8
Layer_1
6
CONTINUOUS
62
1
10
61.685923225183217
20
82.995625765965002
0
VERTEX
8
Layer_1
6
CONTINUOUS
62
1
10
61.571471095733003
20
83.010820899499777
0
VERTEX
8
Layer_1
6
CONTINUOUS
62
1
10
61.468254674498425
20
83.002394890747269
0
VERTEX
8
Layer_1
6
CONTINUOUS
62
1
10
61.380166302297241
20
82.967898174316147
0
VERTEX
8
Layer_1
6
CONTINUOUS
62
1
10
61.311098319947206
20
82.904881184815025
0
VERTEX
8
Layer_1
6
CONTINUOUS
62
1
10
61.238946885554121
20
82.77794820762324
0
VERTEX
8
Layer_1
6
CONTINUOUS
62
1
10
61.204964203474844
20
82.647025096010452
0
VERTEX
8
Layer_1
6
CONTINUOUS
62
1
10
61.205189552842285
20
82.514732098991587
0
VERTEX
8
Layer_1
6
CONTINUOUS
62
1
10
61.235662212789357
20
82.383689465581583
0
VERTEX
8
Layer_1
6
CONTINUOUS
62
1
10
61.292421462448971
20
82.256517444795378
0
VERTEX
8
Layer_1
6
CONTINUOUS
62
1
10
61.371506580954019
20
82.135836285647926
0
VERTEX
8
Layer_1
6
CONTINUOUS
62
1
10
61.468956847437411
20
82.024266237154137
0
VERTEX
8
Layer_1
6
CONTINUOUS
62
1
10
61.580811541032062
20
81.924427548328964
0
VERTEX
8
Layer_1
6
CONTINUOUS
62
1
10
61.703109940870881
20
81.838940468187332
0
VERTEX
8
Layer_1
6
CONTINUOUS
62
1
10
61.831891326086776
20
81.770425245744178
0
VERTEX
8
Layer_1
6
CONTINUOUS
62
1
10
61.963194975812641
20
81.721502130014443
0
VERTEX
8
Layer_1
6
CONTINUOUS
62
1
10
62.093060169181385
20
81.694791370013036
0
VERTEX
8
Layer_1
6
CONTINUOUS
62
1
10
62.217526185325923
20
81.692913214754938
0
VERTEX
8
Layer_1
6
CONTINUOUS
62
1
10
62.332632303379157
20
81.718487913255046
0
VERTEX
8
Layer_1
6
CONTINUOUS
62
1
10
62.434417802474002
20
81.774135714528313
0
VERTEX
8
Layer_1
6
CONTINUOUS
62
1
10
62.518921961743359
20
81.862476867589692
0
SEQEND
0
POLYLINE
8
Layer_1
6
CONTINUOUS
62
1
66
1
10
0
20
0
70
128
40
0
41
0
0
VERTEX
8
Layer_1
6
CONTINUOUS
62
1
10
62.693919325129031
20
80.933039094365469
0
VERTEX
8
Layer_1
6
CONTINUOUS
62
1
10
62.638219741174908
20
81.014731817521877
0
VERTEX
8
Layer_1
6
CONTINUOUS
62
1
10
62.366516708881463
20
81.163806436048816
0
VERTEX
8
Layer_1
6
CONTINUOUS
62
1
10
62.076447512029006
20
81.273066005667317
0
VERTEX
8
Layer_1
6
CONTINUOUS
62
1
10
61.472241783561628
20
81.43804865581393
0
VERTEX
8
Layer_1
6
CONTINUOUS
62
1
10
61.330331137803412
20
81.460067397619284
0
VERTEX
8
Layer_1
6
CONTINUOUS
62
1
10
61.242074856906058
20
81.440833635043219
0
VERTEX
8
Layer_1
6
CONTINUOUS
62
1
10
61.199857763375668
20
81.39026885648056
0
VERTEX
8
Layer_1
6
CONTINUOUS
62
1
10
61.196064679718354
20
81.318294550326115
0
VERTEX
8
Layer_1
6
CONTINUOUS
62
1
10
61.223080428440213
20
81.234832204974708
0
VERTEX
8
Layer_1
6
CONTINUOUS
62
1
10
61.27328983204734
20
81.149803308821149
0
VERTEX
8
Layer_1
6
CONTINUOUS
62
1
10
61.339077713045846
20
81.073129350260274
0
VERTEX
8
Layer_1
6
CONTINUOUS
62
1
10
61.412828893941821
20
81.014731817686865
0
VERTEX
8
Layer_1
6
CONTINUOUS
62
1
10
61.68883079159238
20
80.856414185939343
0
VERTEX
8
Layer_1
6
CONTINUOUS
62
1
10
61.974310626745378
20
80.715880103834351
0
VERTEX
8
Layer_1
6
CONTINUOUS
62
1
10
62.270544084896898
20
80.596662835496545
0
VERTEX
8
Layer_1
6
CONTINUOUS
62
1
10
62.57880685154305
20
80.502295645050538
0
SEQEND
0
POLYLINE
8
Layer_1
6
CONTINUOUS
62
1
66
1
10
0
20
0
70
128
40
0
41
0
0
VERTEX
8
Layer_1
6
CONTINUOUS
62
1
10
62.162916624621857
20
80.63968795222064
0
VERTEX
8
Layer_1
6
CONTINUOUS
62
1
10
61.914763373986595
20
80.709718575010214
0
VERTEX
8
Layer_1
6
CONTINUOUS
62
1
10
61.678794407339907
20
80.751551283415836
0
VERTEX
8
Layer_1
6
CONTINUOUS
62
1
10
61.319996253967901
20
80.777080259448184
0
VERTEX
8
Layer_1
6
CONTINUOUS
62
1
10
61.296108650961365
20
80.75897789466768
0
VERTEX
8
Layer_1
6
CONTINUOUS
62
1
10
61.296699881512851
20
80.715810717094058
0
VERTEX
8
Layer_1
6
CONTINUOUS
62
1
10
61.334849476337581
20
80.621121424343755
0
SEQEND
0
POLYLINE
8
Layer_1
6
CONTINUOUS
62
1
66
1
10
0
20
0
70
128
40
0
41
0
0
VERTEX
8
Layer_1
6
CONTINUOUS
62
1
10
62.953850716767874
20
79.459458279488871
0
VERTEX
8
Layer_1
6
CONTINUOUS
62
1
10
62.188445600499129
20
79.847034551349424
0
VERTEX
8
Layer_1
6
CONTINUOUS
62
1
10
61.796169676367612
20
80.017672547695469
0
VERTEX
8
Layer_1
6
CONTINUOUS
62
1
10
61.386835754642135
20
80.153846426465407
0
VERTEX
8
Layer_1
6
CONTINUOUS
62
1
10
61.308433950632349
20
80.163532558978957
0
VERTEX
8
Layer_1
6
CONTINUOUS
62
1
10
61.247676599113603
20
80.148693192851681
0
VERTEX
8
Layer_1
6
CONTINUOUS
62
1
10
61.20515138778498
20
80.114372149677394
0
VERTEX
8
Layer_1
6
CONTINUOUS
62
1
10
61.181446004345531
20
80.065613251049882
0
VERTEX
8
Layer_1
6
CONTINUOUS
62
1
10
61.177148136494324
20
80.007460318562934
0
VERTEX
8
Layer_1
6
CONTINUOUS
62
1
10
61.19284547193044
20
79.944957173810337
0
VERTEX
8
Layer_1
6
CONTINUOUS
62
1
10
61.229125698352938
20
79.883147638385879
0
VERTEX
8
Layer_1
6
CONTINUOUS
62
1
10
61.286576503460878
20
79.82707553388336
0
SEQEND
0
POLYLINE
8
Layer_1
6
CONTINUOUS
62
1
66
1
10
0
20
0
70
128
40
0
41
0
0
VERTEX
8
Layer_1
6
CONTINUOUS
62
1
10
62.318875459665804
20
80.205832704707333
0
VERTEX
8
Layer_1
6
CONTINUOUS
62
1
10
62.357865168390965
20
79.831253002536499
0
VERTEX
8
Layer_1
6
CONTINUOUS
62
1
10
62.363435126737386
20
79.459458279568437
0
SEQEND
0
ENDSEC
0
EOF
